<?xml version="1.0" encoding="UTF-8"?><svg id="a" xmlns="http://www.w3.org/2000/svg" viewBox="0 0 3600.2 1125.6"><defs><style>.b{fill:#0a3254;}.c{opacity:.38;}</style></defs><g class="c"><path class="b" d="M1482,1086.5c-.2-48.9-.3-99.4,35.5-122.2,14.7-9.3,41.5-14.1,67.4-18.8,27.8-5,54-9.7,64.9-19.5,5.7-5.1,8.4-12.4,7.6-20.6-.9-10.1-8-30.4-45-52.9-16.6-10.1-27.7-24.4-38.4-38.2-14-18.1-27.3-35.2-51.6-42.2-13-3.7-32.4-4.4-53-5.1-30.9-1-62.9-2.1-80.1-13.2-32.7-21.1-42.4-65.3-51.7-108.1-6.3-28.8-12.8-58.6-26.4-80.5-15.2-24.6-38-36.6-69.5-36.6h-.3c-38.3,0-93.6,12.9-140.9,32.8-57.8,24.4-96.4,56-108.6,89-14.5,39.4-4,89.6,32.3,153.5,10.6,18.6,20.6,38.3,30.3,57.4,13.6,26.8,27.7,54.5,43.6,79.7,12.4,19.7,29.6,34.7,46.3,49.2,22.3,19.4,43.5,37.8,54.2,66.8,7.5,20.4,9.4,44.5,10.6,68.4h1c-1.2-24-3.1-48.2-10.7-68.7-10.8-29.2-33-48.5-54.5-67.2-16.6-14.4-33.7-29.3-46.1-48.9-15.8-25.1-29.9-52.8-43.5-79.6-9.7-19.1-19.8-38.8-30.3-57.4-36.1-63.6-46.7-113.6-32.3-152.7,12.1-32.8,50.5-64.2,108-88.5,47.2-19.9,102.3-32.8,140.6-32.8h.3c31.6,0,53.4,11.5,68.7,36.2,13.5,21.8,20,51.5,26.3,80.2,9.4,43,19.1,87.4,52.2,108.7,17.5,11.3,49.6,12.4,80.6,13.4,20.5,.7,39.9,1.3,52.8,5,24,6.9,37.1,23.9,51,41.9,10.8,13.9,21.9,28.3,38.7,38.5,36.6,22.2,43.6,42.2,44.6,52.1,.7,7.9-1.9,14.9-7.3,19.8-10.7,9.6-36.8,14.3-64.4,19.3-26,4.7-52.9,9.5-67.8,18.9-36.3,23.1-36.2,73.9-36,123,0,13.3,.1,26.4-.6,38.8h1c.6-12.5,.5-25.6,.5-38.9Z"/><path class="b" d="M432.9,140.2c-10.8,2.5-21.3,12.7-28,27.3-7.1,15.4-8.3,31.6-3.1,41.5,6.1,11.7,21,15.7,35.9,15.7,11.6,0,23.2-2.5,30.6-5.8,11.2-5,10-22.3,5.1-36.8-7.7-22.9-25.3-45.5-40.5-41.9Zm35,77.8c-16.6,7.4-54.7,10.7-65.2-9.5-5-9.6-3.8-25.6,3.2-40.6,6.6-14.3,16.8-24.3,27.3-26.7,14.2-3.3,31.8,18.7,39.3,41.2,4.7,14.1,5.9,30.9-4.6,35.6Z"/><path class="b" d="M408.6,1117.1c-39.4,.4-70.4,.6-113.4-26.6-7.4-4.7-14.7-10-21.8-15.1-10.3-7.4-20.9-15-32.2-21.3-8.4-4.6-21.1-8-34.7-11.5-19.6-5.2-39.9-10.5-49.1-20.3-9.6-10.2-20.4-51.8-25-75.7-8.4-43.5,14.6-66.4,43.7-95.4,1.8-1.8,3.6-3.6,5.5-5.5,3.4-3.4,7.5-8.3,12.3-14.1,12.8-15.4,30.4-36.4,44.7-39.1,18.7-3.5,25.7,2.9,34.5,11,4.7,4.3,10.1,9.2,18,13,43.6,20.7,88.1,5.5,131.2-9.1,2.9-1,5.9-2,8.8-3,37.1-12.5,79.6-18.1,124.6-24,99.8-13.2,203-26.8,248-119.1,23.4-48,47.6-120.5,29.8-193.2-11.2-45.7-39.8-68.6-70.1-92.8-15.3-12.3-31.2-24.9-45.8-41.2-27.7-30.8-6.9-55.4,17.1-83.8,9.1-10.7,18.5-21.9,25.6-33.9,6.2-10.5,19.7-37.5,12.1-62.9-4.2-14-14.2-25-29.7-32.6-48.9-23.9-77.5-12.8-105.1-2-17.4,6.7-33.7,13.1-54.6,11-8-.8-18.5,1.6-30.6,4.3-31.9,7.3-71.7,16.4-96.2-26.6-15.5-27.2,24.4-68.3,45.8-90.4,3.7-3.8,6.9-7.2,9-9.6,2.1-2.4,4.1-4.9,6.2-7.3h-1.3c-1.8,2.2-3.7,4.4-5.6,6.6-2,2.4-5.3,5.7-9,9.5-21.6,22.3-61.9,63.8-46,91.6,11.1,19.4,26.2,30.1,46.2,32.6,17.3,2.2,35.2-1.9,51.1-5.5,12-2.7,22.4-5.1,30.3-4.3,21.1,2.1,37.6-4.3,55-11.1,27.5-10.7,55.9-21.7,104.3,2,15.3,7.5,25.1,18.2,29.2,32,7.5,25-5.9,51.8-12,62.1-7.1,11.9-16.4,23-25.5,33.7-23.3,27.6-45.3,53.7-17.1,85.2,14.7,16.4,30.6,29.1,45.9,41.4,30.1,24.1,58.6,46.9,69.7,92.3,17.7,72.4-6.4,144.6-29.7,192.5-44.8,91.8-147.7,105.4-247.2,118.5-45.1,6-87.6,11.6-124.8,24.1-2.9,1-5.8,2-8.8,3-42.9,14.6-87.3,29.7-130.5,9.2-7.8-3.7-13-8.5-17.7-12.8-8.7-8-16.2-14.9-35.4-11.2-14.7,2.8-31.7,23.1-45.3,39.5-4.8,5.7-8.9,10.6-12.2,14-1.8,1.9-3.7,3.7-5.5,5.5-29.3,29.2-52.5,52.3-44,96.3,4.6,24,15.6,65.9,25.3,76.2,9.4,10,29.8,15.4,49.6,20.6,13.5,3.5,26.2,6.9,34.4,11.4,11.2,6.2,21.8,13.8,32.1,21.2,7.1,5.1,14.4,10.4,21.9,15.1,43.2,27.5,76,27.1,113.9,26.8,15.6-.1,31.7-.3,50.2,1.3,8.5,.7,16.5,3,24.3,5.9h2.8c-8.6-3.4-17.5-6.2-27-6.9-18.5-1.8-34.6-1.6-50.2-1.5Z"/><path class="b" d="M188.2,1100.6c-11.4,0-23.1,0-34.1-.7-29.4-1.8-108.6-12.1-121.4-37.6-2.5-5.1,1.1-12.3,5.8-21.5,6.9-13.6,16.3-32.3,11.4-55.9-4.9-23.4,1.5-37.2,7.6-50.6,4.2-9.3,8.2-18,8.8-29.6,2.6-57.3,7.7-60.4,41.1-81,7.2-4.4,15.3-9.5,25.1-16,14.5-9.7,26.1-22.7,37.3-35.3,10.4-11.6,20.1-22.6,31.9-31,24.7-17.7,25.2-17.7,47.2-15.6,4.4,.4,9.9,.9,16.6,1.4,3.6,.2,7.2,.4,10.6,.4,59.4,0,86.9-36.4,113.6-71.7,27.5-36.4,53.5-70.8,111.7-67.1,19.2,1.2,38,4.6,56.3,7.8,32.8,5.8,66.7,11.9,102.8,5.3,31.3-5.7,50.2-17.7,56.1-35.6,10.3-30.9-19.9-69.6-38.8-89.9-5.6-6-11.3-11.8-16.8-17.5-37.3-38.2-69.5-71.2-41.6-129.9,12.8-27,34.1-39.9,56.7-53.6,24.9-15.1,50.7-30.7,64.8-66.9,11.3-28.9,10-54.1-3.4-69.3-13.3-15.1-37.3-19.3-67.5-11.7-24.3,6.1-36.6,25.7-48.5,44.6-5,8-10.2,16.2-16.2,23.3-29.2,34.4-39.5,32.2-64.3,26.8-7.4-1.6-15.8-3.4-26.3-4.7-15.1-1.8-28.3,7.2-42.3,16.6-14.2,9.6-28.9,19.6-46.1,17.8-29.2-3.1-48.2-13.1-56.6-29.8-10.3-20.6-4-52.1,17.8-88.7,6.3-10.6,11.2-24.4,16-37.7,5.5-15.6,10.8-30.3,18-40.1,10.6-14.5,24.9-27.9,40.1-42.1,4.7-4.4,9.4-8.8,14-13.2h-1.4c-4.4,4.2-8.8,8.4-13.3,12.5-15.2,14.2-29.6,27.7-40.3,42.2-7.3,10-12.6,24.8-18.1,40.4-4.7,13.3-9.6,27-15.9,37.5-15.5,26.2-31.3,62.9-17.9,89.7,8.5,17,27.8,27.2,57.4,30.3,17.6,1.9,32.4-8.2,46.8-17.9,13.8-9.4,26.9-18.2,41.6-16.5,10.5,1.2,18.9,3,26.2,4.7,24.6,5.3,35.8,7.8,65.3-27.1,6.1-7.2,11.3-15.4,16.3-23.4,11.8-18.8,24-38.2,47.9-44.2,29.8-7.5,53.4-3.5,66.5,11.4s14.3,39.8,3.2,68.3c-14,35.9-39.6,51.4-64.4,66.4-22.7,13.7-44.1,26.7-57.1,54-28.2,59.3,4.2,92.6,41.8,131,5.5,5.6,11.2,11.5,16.8,17.5,31.9,34.3,46,66.7,38.6,88.9-5.8,17.6-24.5,29.3-55.3,34.9-35.9,6.5-69.7,.5-102.4-5.3-18.3-3.3-37.1-6.6-56.4-7.9-26.4-1.7-48.7,4.5-68.2,18.9-17.4,12.8-31.1,31-44.4,48.6-28.1,37.1-57.1,75.5-123.3,71-6.7-.5-12.1-1-16.6-1.4-22.4-2.1-22.8-2.1-47.9,15.8-11.9,8.5-21.7,19.5-32.1,31.2-11.2,12.6-22.7,25.5-37.1,35.1-9.8,6.5-17.9,11.6-25.1,16-33.8,20.8-39,24-41.6,81.8-.5,11.4-4.5,20.1-8.7,29.2-6.2,13.5-12.6,27.5-7.6,51.2,4.8,23.2-4.5,41.7-11.3,55.2-4.8,9.5-8.5,16.9-5.8,22.4,13,25.9,92.6,36.4,122.2,38.2,11,.7,22.8,.7,34.2,.7,22.3,0,45.5,0,66.2,4.9,18.2,4.3,35.2,11.5,51.6,18.8h2.4c-17.1-7.7-34.8-15.3-53.8-19.8-20.8-4.9-44-4.9-66.4-4.9Z"/><path class="b" d="M1520,1043.3c15.4-49.4,45.9-56.2,81.1-64,22.5-5,45.8-10.2,67.7-27.2,15-11.6,23.2-25,24.6-39.9,1.4-15.4-5.1-31.9-18.2-46.5-12-13.3-28.8-23.2-43.7-31.9-7.9-4.6-15.3-8.9-20.8-13.1-15-11.5-23.6-23.6-31.1-34.4-6.9-9.8-13.4-19-23.6-26-21.4-14.7-52.6-20.9-92-28.6-66-13-71.4-33.5-85.8-88.5-1.5-5.9-3.1-12-5-18.6-11.9-43.4-27.1-78.7-45.1-104.9-26.2-37.9-57.6-55.3-93.5-51.8-24,2.3-46.5,11.6-68.4,20.6-30.4,12.5-61.9,25.4-97.9,20.2-48-6.9-69.9-42.1-93.1-79.5-13.6-21.9-27.6-44.5-47.5-62-7-6.2-19.8-13.4-33.3-21-21-11.9-44.9-25.4-51.9-37.8-10-17.6-2-28.5,8-42.2,3.4-4.6,6.9-9.4,10.2-15,28.3-48,36.6-83.3,26.3-111.2-9-24.3-32.3-42.6-71.2-55.9-28.4-9.7-45.8-22.8-62.6-35.4-22-16.4-42.7-32-84.4-35.8-35.2-3.1-49-6.3-53.3-12.6h-1.2c4.1,7,17.4,10.4,54.3,13.7,41.4,3.8,62.1,19.2,83.9,35.6,16.9,12.7,34.4,25.8,62.9,35.5,38.6,13.2,61.7,31.3,70.6,55.3,10.2,27.6,1.9,62.7-26.2,110.3-3.3,5.5-6.7,10.3-10.1,14.9-10.2,14-18.3,25.1-8.1,43.3,7.2,12.7,31.2,26.3,52.3,38.2,13.5,7.6,26.2,14.8,33.1,20.9,19.8,17.4,33.8,39.9,47.3,61.7,23.3,37.5,45.3,73,93.8,79.9,36.3,5.2,67.9-7.7,98.4-20.3,21.8-8.9,44.3-18.2,68.1-20.5,35.5-3.5,66.7,13.8,92.6,51.4,18,26.1,33.1,61.3,45,104.6,1.8,6.6,3.4,12.7,5,18.6,14.5,55.4,19.9,76.1,86.6,89.2,39.3,7.7,70.4,13.8,91.6,28.5,10.1,6.9,16.5,16.1,23.3,25.8,7.6,10.8,16.2,23,31.3,34.6,5.6,4.3,13,8.6,20.9,13.2,14.8,8.7,31.7,18.5,43.5,31.7,12.9,14.4,19.3,30.6,17.9,45.7-1.3,14.6-9.5,27.8-24.2,39.2-21.7,16.8-44.9,22-67.3,27-34.1,7.6-66.3,14.8-81.8,64.7-5.8,18.7-7.3,41.2-8.8,62.9-.4,6.4-.9,12.9-1.4,19.3h1c.5-6.4,1-12.8,1.4-19.3,1.5-21.5,3-43.9,8.8-62.6Z"/><path class="b" d="M1089.3,1035.1c-24.1-12.9-45.2-31.4-65.6-49.4-27.3-23.9-55.5-48.7-90.3-59.3-54.5-16.5-124.3-19.1-186.8-6.9-5.6,1.1-11.2,2.2-16.8,3.3-60.2,11.7-122.4,23.9-181.3,43-10.1,3.3-26.9,5.3-44.7,7.4-35.2,4.2-75.1,8.9-87.5,25.1-3.2,4.2-4.4,9-3.6,14.3,2.2,14.7,24,29.3,59.9,40.1,34,10.2,75,15.4,109.5,13.7,36.8-1.8,64.2,13.5,93.1,29.7,19.8,11.1,40.2,22.5,64.8,29.1h3.9c-26.1-6.4-47.5-18.4-68.3-30-29.1-16.3-56.6-31.6-93.7-29.9-69.6,3.3-163.8-21.8-168.4-52.9-.7-5,.4-9.6,3.4-13.5,12.2-15.9,51.8-20.6,86.8-24.7,17.9-2.1,34.7-4.1,44.9-7.4,58.9-19.2,121.1-31.3,181.2-43,5.6-1.1,11.2-2.2,16.8-3.3,62.4-12.2,132-9.7,186.4,6.8,34.7,10.5,62.8,35.2,90,59.1,20.5,18,41.6,36.5,65.8,49.5,44,23.6,61,53.2,74,89.4h1.1c-13.1-36.5-30.2-66.4-74.6-90.2Z"/><path class="b" d="M1536,1066.5c17-48.8,31.6-59.9,76.6-75.2l4.4-1.5c38.6-13.1,78.4-26.6,83.6-75.9,3.1-29.3-11.3-47.9-25.8-62.2-9.2-9.1-19.9-15-31.3-21.3-9.4-5.2-19.2-10.6-28.7-18.1-12.1-9.6-22.1-22.2-31.9-34.4-9.4-11.7-19.1-23.8-30.5-33.2-19-15.7-42.1-21.1-64.5-26.3-22.6-5.3-44-10.3-61.7-25-21.8-18.2-28.6-42-35.8-67.2-2.3-8.1-4.7-16.6-7.7-24.9-17.1-47.9-35.8-83.1-57.2-107.6-28.7-32.9-63-46.8-101.8-41.4-13.7,1.9-27,5.2-39.9,8.3-29.4,7.2-57.2,14-89,6.3-31.4-7.6-47.6-26.3-66.4-47.9-5.8-6.7-11.8-13.6-18.6-20.5-17-17.3-37.9-32.1-58.2-46.4s-39.5-27.8-54.9-43.6c-25.9-26.6-18.3-39.3-4.5-62.3,5.3-8.7,11.2-18.7,16.6-31.3,36.7-86.9-14-122.5-72.7-163.7-10.3-7.4-21-14.9-31.5-22.9-7.4-5.7-13.5-11.2-19.4-16.6-4.4-4-8.6-7.8-13-11.4h-1.6c4.8,3.8,9.2,7.9,13.9,12.2,5.9,5.4,12,10.9,19.5,16.7,10.5,8,21.2,15.5,31.6,22.8,58.3,41,108.7,76.3,72.3,162.5-5.3,12.6-11.2,22.5-16.5,31.2-13.6,22.7-21.9,36.4,4.6,63.5,15.5,15.9,34.7,29.4,55.1,43.8,20.3,14.3,41.2,29,58.1,46.3,6.7,6.9,12.7,13.8,18.5,20.5,18.9,21.8,35.3,40.6,67,48.2,32.1,7.7,60,.9,89.5-6.3,12.8-3.1,26.1-6.4,39.8-8.3,38.5-5.4,72.5,8.4,100.9,41,21.3,24.4,39.9,59.5,57,107.3,3,8.3,5.4,16.7,7.7,24.8,7.3,25.3,14.1,49.3,36.2,67.7,17.8,14.9,40.3,20.1,62.1,25.2,22.3,5.2,45.3,10.6,64.1,26.1,11.3,9.4,21,21.4,30.3,33.1,9.8,12.2,19.9,24.8,32.1,34.5,9.5,7.6,19.3,13,28.8,18.2,11.3,6.2,22,12.1,31.1,21.1,14.3,14.2,28.5,32.6,25.5,61.4-5.1,48.6-44.7,62-82.9,75l-4.4,1.5c-45.4,15.5-60.1,26.6-77.3,75.9-6.3,18.2-10.9,37.6-15.4,56.3-.2,.9-.4,1.8-.7,2.8h1c.2-.8,.4-1.7,.6-2.5,4.4-18.8,9-38.1,15.3-56.3Z"/><path class="b" d="M1029.8,1041.8c-17.1-7.3-31.4-17.2-45.2-26.9-12.4-8.7-25.3-17.6-40-24.4-27.6-12.7-64-15.4-99.1-18.1-14.4-1.1-28-2.1-40.4-3.8-38.6-5.3-64.7,.9-94.8,8-12.5,2.9-25.4,6-40.3,8.5-13.2,2.3-29.1,1.4-45.9,.6-28.4-1.5-57.8-3-78.8,10.1-11.5,7.2-16.6,13.1-16,18.4,1,8.7,17.1,14.3,37.5,21.5,4.1,1.5,8.4,3,12.8,4.6,17.6,6.5,35.6,12.1,53,17.6,26,8.2,52.9,16.7,78.7,27.9,24.7,10.7,52.2,23.4,79.1,39.4h1.9c-27.3-16.5-55.4-29.4-80.6-40.3-25.9-11.2-52.8-19.7-78.8-27.9-17.4-5.5-35.4-11.2-52.9-17.6-4.4-1.6-8.6-3.1-12.8-4.6-20.1-7.1-36-12.6-36.9-20.7-.5-4.8,4.6-10.5,15.6-17.4,20.6-12.9,49.9-11.4,78.2-10,16.9,.9,32.8,1.7,46.1-.6,15-2.6,27.9-5.6,40.4-8.6,30.1-7.1,56-13.2,94.5-7.9,12.4,1.7,26.1,2.7,40.5,3.8,35.1,2.6,71.3,5.4,98.8,18,14.6,6.7,27.4,15.6,39.8,24.3,13.9,9.6,28.2,19.6,45.4,27,45.4,19.3,72.3,48.8,93.6,82.6h1.2c-21.6-34.1-48.7-63.9-94.6-83.5Z"/><path class="b" d="M1636,1096.1c10.6-7.2,21.2-10.8,31.5-14.4,15.7-5.4,30.5-10.5,44.6-27.3,40-47.7,55-100.8,45.9-162.3-4.8-32.3-14.8-56.1-33.4-79.4-11.4-14.2-25-25.7-38.1-36.8-13.6-11.5-27.6-23.4-39-38.1-10.1-13.1-17.2-30.7-24-47.8-7.7-19.1-15.6-38.9-27.9-51.9-12.2-12.9-29.5-23.7-46.3-34.2-10.9-6.8-22.2-13.8-31.6-21.2-9.7-7.6-17.7-17.3-25.5-26.6-6.3-7.6-12.8-15.4-20.2-22.1-4.9-4.4-10.6-7.9-16.1-11.3-8.7-5.3-17.6-10.8-23.8-20-18.4-27.4-25.2-56.5-31.7-84.8-6.3-27.3-12.3-53-28.3-73.7-20.8-26.9-68.1-48-120.4-53.8-21-2.3-56.5-16.6-90.5-36.4-36.1-21.1-61.4-43-67.6-58.7-9.2-23.1,.1-53.3,8.4-80,5-16.1,9.7-31.4,10.3-44.1,1.5-33.3-2-46.3-17.3-71h-1.2c15.4,24.8,19,37.8,17.4,71-.6,12.6-5.3,27.8-10.3,43.9-8.3,26.8-17.7,57.2-8.4,80.7,6.3,15.8,31.8,38,68,59.2,34,19.9,69.7,34.2,90.9,36.6,52,5.7,99,26.7,119.7,53.4,15.9,20.6,21.9,46.2,28.2,73.3,6.6,28.3,13.3,57.6,31.9,85.1,6.3,9.3,15.3,14.9,24.1,20.3,5.5,3.4,11.2,6.9,16,11.2,7.3,6.6,13.8,14.4,20.1,22,7.8,9.4,15.9,19.1,25.7,26.8,9.5,7.4,20.8,14.5,31.7,21.3,16.7,10.4,34,21.2,46.1,34,12.1,12.9,20,32.6,27.7,51.6,6.9,17.1,14,34.7,24.2,48,11.5,14.9,25.6,26.8,39.2,38.3,13.1,11.1,26.7,22.5,38,36.7,18.5,23.2,28.4,46.8,33.2,78.9,9.1,61.1-5.9,114-45.7,161.5-13.9,16.6-28.6,21.6-44.2,27-10.3,3.5-21,7.2-31.7,14.5-10.4,7-18.8,17.7-26.1,30h1.2c6.9-12.2,15.2-22.5,25.3-29.4Z"/><path class="b" d="M1453.2,1061.3c-3.8-37.6-7.8-76.4,10.7-103.5,18-26.4,50.5-38.3,76.5-47.9,22.6-8.3,40.4-14.9,42.9-27.7,2-10.8-7.5-25.1-29.9-45-19.1-17-42.7-34.9-72.1-39.2-30.3-4.4-50.7-3.4-67.1-2.6-23.5,1.1-37.6,1.8-58-16.2-19.9-17.6-30.4-51.3-41.6-87-14.7-47.1-29.9-95.8-68.5-113.7-25.1-11.6-57.2-8.8-98.1,8.6-48.2,20.5-73.3,62.7-65.6,110,6.3,38.3,23.1,56.1,39.4,73.2,5,5.3,10.3,10.8,15,16.8,28.5,36.2,37.1,66.5,46.2,98.5,3.3,11.6,6.7,23.6,11.1,36.2,2.9,8.3,6,16.6,8.9,24.7,13.8,37.7,26.9,73.2,28.8,113.8,.8,16.4-.4,40.9-1.6,65h1c1.2-24.1,2.4-48.6,1.6-65-1.9-40.7-15-76.3-28.8-114.1-3-8-6-16.4-8.9-24.7-4.4-12.6-7.8-24.6-11.1-36.2-9.1-32.1-17.7-62.4-46.4-98.8-4.7-6-10-11.5-15-16.9-16.2-17.1-32.9-34.7-39.1-72.7-7.7-46.9,17.2-88.6,65-108.9,24.4-10.4,45.5-15.5,64-15.5,12.3,0,23.4,2.3,33.3,6.9,38.2,17.7,53.3,66.2,68,113,11.2,35.8,21.7,69.6,41.9,87.4,20.6,18.3,35,17.6,58.7,16.4,16.4-.8,36.7-1.8,66.9,2.6,29.2,4.2,52.5,22.1,71.6,39,22.2,19.7,31.6,33.7,29.6,44.1-2.3,12.2-19.9,18.7-42.2,26.9-26.2,9.6-58.8,21.6-77,48.3-18.7,27.4-14.7,66.4-10.9,104.2,2.3,22.8,4.6,45,1.8,63.9h1c2.6-18.9,.3-41.1-2-63.9Z"/><path class="b" d="M1439.4,1048.7c-2.3-34.6-4.4-67.4,5.3-86.4,13-25.6,37.2-38.2,58.7-49.3,10.4-5.4,20.1-10.4,27.5-16.5,11.9-9.7,17.8-21.2,16.7-32.4-1.5-15-14.7-29.1-39.2-41.8-16-8.3-44.9-14.6-63.6-15.8-12.1-.8-23.6,0-34.8,.8-27.9,2-52,3.8-74-20.4-19.4-21.2-27.5-51.2-35.4-80.2-10-36.7-20.3-74.7-53.1-96.9-26.1-17.7-62.1-21.6-87.7-9.6-33.6,15.8-57.2,56.5-54.9,94.6,1.8,30.5,25.9,61,47.1,88,10.6,13.4,20.6,26.1,27.4,38,19.7,34.5,32.4,71.4,45.7,112.5,16.2,50,25.8,95.7,20,155.7-.5,5-1.5,11.4-2.6,19-.8,5.3-1.7,11.1-2.6,17.3h1c.8-6.1,1.7-11.9,2.5-17.2,1.2-7.5,2.2-14,2.6-19,5.8-60.2-3.8-106-20-156.1-13.4-41.2-26-78.2-45.8-112.7-6.8-11.9-16.8-24.6-27.5-38.1-21.1-26.8-45.1-57.2-46.9-87.4-2.3-37.7,21.1-77.9,54.3-93.6,9.8-4.6,21.1-6.8,32.8-6.8,18.6,0,38.1,5.6,53.9,16.4,32.5,22.1,42.8,59.8,52.7,96.4,7.9,29.1,16.1,59.2,35.6,80.6,22.3,24.5,46.7,22.7,74.8,20.7,11.1-.8,22.6-1.6,34.6-.8,18.6,1.2,47.3,7.4,63.2,15.7,24.2,12.6,37.2,26.4,38.7,41.1,1.1,10.9-4.7,22.1-16.3,31.5-7.3,6-17.1,11-27.4,16.4-21.5,11.2-46,23.8-59.1,49.7-9.8,19.3-7.7,52.2-5.4,86.9,1.8,27.5,3.6,55.5-.9,76.5h1c4.7-21.3,2.9-49.3,1.1-76.8Z"/><path class="b" d="M1753.1,1069.7c3-8,6-15.6,8.8-23,19.9-51.1,35.5-91.5,29.8-152.4-8-84.7-34.2-112.5-67.4-147.5-11.6-12.3-23.7-25.1-36.5-41.6-11.7-15.2-19.9-32.1-27.8-48.5-9.4-19.5-19.1-39.6-34.7-56.6-12.8-13.9-28.8-23.3-44.4-32.3-13.8-8.1-28.2-16.4-39.9-27.9-17.3-17-29.4-40.7-41-63.6-3.8-7.5-7.4-14.6-11.2-21.4-8-14.5-11.7-16.9-16.1-19.7-3.6-2.4-7.7-5-15.3-15.9-8.9-12.7-13.3-30.2-18-48.6-4.7-18.6-9.6-37.9-19.5-54.4-18.6-31.1-44.1-58.4-68.7-84.8-16.6-17.8-32.3-34.6-44.4-51.2-10.6-14.4-22.7-27.1-34.4-39.3-20-20.9-38.9-40.7-48.4-67.1-6.2-17.3-4.2-31.1-2.2-45.8,1.2-8.8,2.5-17.8,1.9-27.8h-1c.6,9.9-.7,18.9-1.9,27.7-2.1,14.8-4.1,28.8,2.2,46.3,9.5,26.6,28.5,46.4,48.6,67.4,11.7,12.2,23.8,24.8,34.3,39.2,12.2,16.6,27.8,33.4,44.5,51.2,24.6,26.3,49.9,53.6,68.5,84.6,9.8,16.4,14.7,35.6,19.4,54.1,4.7,18.6,9.2,36.1,18.1,49,7.7,11,11.9,13.7,15.6,16.1,4.2,2.8,7.9,5.1,15.7,19.4,3.7,6.8,7.3,13.9,11.2,21.3,11.7,23,23.8,46.8,41.2,63.9,11.8,11.6,26.2,19.9,40.1,28.1,15.5,9,31.4,18.4,44.1,32.1,15.5,16.9,25.2,36.9,34.6,56.3,7.9,16.5,16.2,33.5,27.9,48.7,12.8,16.6,24.9,29.3,36.5,41.6,33,34.9,59.1,62.5,67.1,146.9,5.7,60.7-9.9,101-29.7,151.9-2.9,7.4-5.8,15-8.9,23-4.6,12.2-10.8,24.3-16.8,36-3.3,6.5-6.8,13.2-9.9,20h1.1c3.1-6.6,6.5-13.1,9.7-19.5,6.3-11.5,12.5-23.6,17.2-35.9Z"/><path class="b" d="M6.8,.3C4.6,4.9,2.4,9.6,0,14.4v2.2C2.8,11,5.4,5.6,7.9,.3h-1.1Z"/><path class="b" d="M1410.9,870.1c-8.7-14.3-24.9-7.9-43.6-.5-4.4,1.8-9,3.6-13.6,5.2-5,1.7-12.8,.9-20.4,.2-10.3-1.1-20-2-23.1,3-9.5,15.1-4.9,35.4,0,57,2,8.6,4,17.5,5,26,.9,7.4,1.5,16.9,2.2,26.8,2.1,32.1,4.6,72,20.1,79.1,1.6,.8,3.4,1.1,5.3,1.1,4.4,0,9.4-2.1,14.9-6.2,19.2-14.3,20.5-39.2,22-65.6,.9-15.7,1.7-32,6.5-46.6,5.5-16.7,13.2-28,19.4-37.1,9.8-14.7,16.4-24.3,5.3-42.4Zm-6.2,41.8c-6.2,9.2-13.9,20.6-19.5,37.4-4.8,14.7-5.7,31-6.6,46.8-1.4,26.1-2.8,50.8-21.6,64.9-7.6,5.7-14,7.4-19.2,5-15-6.9-17.5-46.5-19.6-78.3-.6-10-1.2-19.4-2.2-26.9-1.1-8.6-3.1-17.5-5-26.1-4.8-21.4-9.4-41.5-.1-56.3,1.6-2.6,5.5-3.4,10.3-3.4,3.6,0,7.7,.4,11.9,.9,7.7,.8,15.6,1.6,20.8-.2,4.7-1.6,9.3-3.4,13.7-5.2,18.3-7.2,34-13.5,42.3,.1,10.9,17.6,4.5,27-5.2,41.3Z"/><path class="b" d="M1407.4,951.2c2.8-12.9,12.6-25.5,22.1-37.8,14.6-18.9,28.5-36.7,16.3-53.8-13.3-18.8-58-12.8-83.1-4.6-39.4,12.9-56-5.5-66.9-17.7-4.6-5.1-8.2-9.1-12.1-9.1-2.1,0-4.2,1.2-6.3,3.6-12.1,13.5-4,34.7,6.3,61.5,9.5,24.9,20.3,53.2,19,84.3-1,23.7-3.9,95.9,24,113.1,3.9,2.4,8.3,3.6,13.1,3.6,6.7,0,14.2-2.3,22.5-7,31.2-17.4,36.2-64.1,40.2-101.6,1.5-12.7,2.7-24.7,4.9-34.5Zm-45.5,135.2c-14,7.8-25.6,8.9-34.6,3.4-11.6-7.1-19.1-25.2-22.3-53.7-2.6-23.3-1.6-47.1-1.2-58.6,1.3-31.4-9.5-59.7-19.1-84.7-10.1-26.5-18.1-47.4-6.5-60.5,1.9-2.2,3.8-3.2,5.6-3.2,3.5,0,6.9,3.9,11.3,8.7,8.5,9.4,20.2,22.4,42.9,22.4,7.2,0,15.5-1.3,25.1-4.4,24.8-8.1,69-14.1,81.9,4.3,11.7,16.5-1.9,34.1-16.3,52.6-9.6,12.3-19.5,25.1-22.3,38.2-2.1,9.9-3.4,21.9-4.8,34.6-4.2,39.3-9,83.8-39.7,100.9Z"/><path class="b" d="M1399,1083.3c7.6-17.1,9-41.5,10.5-67.3,1.5-27,3.1-54.9,12.5-73.6,9.3-18.6,21.8-32.4,31.8-43.6,13.1-14.5,22.6-25.1,18.5-37.4-10.5-31.6-67.5-32.5-99.5-28-53.2,7.4-66.5-12.7-84.1-60.4-6.1-16.5-36.5-77.3-59.7-75.8-9.3,.6-16.3,11-20.8,30.9-5.3,23.4,15,65.2,32.9,102,9.2,19,18,36.9,21.4,49.1,2.5,8.8,5,17.2,7.4,25.2,12.9,43.4,24.1,80.9,20.6,148.2-.4,7.9-2.6,17.4-4.8,27.5-3.7,16.2-7.4,32.8-4.7,45.1h1c-2.8-12.1,1-28.7,4.6-44.8,2.3-10.1,4.4-19.7,4.9-27.7,3.6-67.5-7.6-105.1-20.6-148.5-2.4-8.1-4.9-16.4-7.4-25.2-3.5-12.3-12.2-30.3-21.5-49.3-17.8-36.7-38.1-78.3-32.8-101.4,4.4-19.4,11.1-29.6,19.9-30.1h.8c22.6,0,52,59,57.9,75.2,9.3,25.1,16.5,40.5,28.2,50.5,12.8,11,30.4,14.2,57,10.5,31.7-4.4,88.2-3.7,98.4,27.3,3.9,11.8-5.4,22.1-18.3,36.4-10.1,11.2-22.6,25.1-32,43.8-9.5,18.9-11.1,46.9-12.6,74-1.5,25.7-2.8,50-10.4,66.9-8.3,18.6-21.3,32.6-35.6,42.5h1.8c13.9-9.9,26.5-23.8,34.7-42Z"/><path class="b" d="M1469.9,1076c-.4-3.7-.9-7.5-1.3-11.3-4.3-36.4-8.8-74.1,12.8-98,14-15.5,43.4-23.5,71.9-31.3,41.3-11.3,80.4-22,71.9-53.9-2.2-8.5-15.2-17.5-28.8-27-4.9-3.4-9.9-6.9-14.4-10.3-6.9-5.3-11.9-11.3-17.1-17.7-9.4-11.4-20.1-24.4-45.1-35.4-24.8-10.9-49.4-10.5-73.1-10-37,.7-69,1.2-93.1-40-11.4-19.5-17.1-44.1-22.7-67.8-7.1-30.4-14.4-61.9-33.7-84.8-20.5-24.3-44.5-37.2-73.2-39.4-23-1.7-49,3.3-81.8,15.9-24.1,9.2-46.3,22.7-62.7,37.8-20.7,19.1-32.2,40.5-34.2,63.6-3.7,42.8,21.2,71.9,47.5,102.7,4.8,5.6,9.7,11.3,14.5,17.2,27.2,33.3,41.8,76.5,56,118.1,5.1,15.1,10.4,30.7,16.2,45.5,3.4,8.7,7.3,17.7,11.1,26.3,7.9,18.1,16,36.9,20.8,55.6,7,27.1,6.9,55.2,6.9,82.4v11h1v-11c0-27.3,.1-55.4-6.9-82.7-4.8-18.8-13-37.5-20.9-55.7-3.8-8.7-7.7-17.6-11.1-26.3-5.8-14.8-11.1-30.4-16.2-45.4-14.2-41.8-28.8-85-56.1-118.5-4.8-5.9-9.7-11.6-14.5-17.2-26.2-30.6-51-59.5-47.3-102,5.3-61,75.1-92.4,96.3-100.5,23.2-8.9,48-16.3,72.5-16.3,28.5,0,56.6,10.1,81.4,39.5,19.1,22.7,26.4,54.1,33.5,84.4,5.6,23.8,11.3,48.5,22.8,68.1,24.4,41.8,58.2,41.2,94,40.5,23.6-.4,48.1-.8,72.7,10,24.9,10.9,35,23.2,44.8,35.1,5.3,6.4,10.2,12.4,17.2,17.8,4.5,3.5,9.5,7,14.4,10.4,13.5,9.4,26.3,18.3,28.4,26.4,8.2,31-30.4,41.5-71.2,52.7-28.6,7.8-58.2,15.9-72.4,31.6-21.9,24.2-17.4,62.1-13,98.8,.4,3.8,.9,7.5,1.3,11.2,1.7,15.4,2.5,32.7,.6,49.1h1c1.8-16.4,1-33.8-.7-49.2Z"/><path class="b" d="M1818.6,1054.1c3.5-34.2-3.6-71.2-10.5-107.1-4.3-22.5-8.8-45.7-10.3-67.3-6.1-84.3-23.8-115.5-81.8-178.9-17-18.6-31.4-40.4-45.3-61.4-19-28.8-38.7-58.6-65.5-80.8-59.1-49-89.6-116.2-119.1-181.2-17.8-39.2-36.2-79.8-60.7-116.2-8.5-12.7-16.7-25.9-24.6-38.7-13.6-22-27.7-44.8-44.1-65.5-6.3-8-15.2-16.4-24.5-25.2-15.9-15-32.3-30.5-38.9-46.6-6.3-15.5-5.5-29.9-4.6-45.2,.6-9.8,1.2-20-.2-30.8-.4-3-.9-6-1.5-8.9h-1c.6,3,1.1,6,1.5,9.1,1.4,10.7,.8,20.8,.2,30.6-.9,15.4-1.7,30,4.7,45.7,6.7,16.3,23.2,31.9,39.2,46.9,9.3,8.8,18.1,17.1,24.4,25.1,16.4,20.7,30.4,43.4,44,65.4,7.9,12.8,16.1,26,24.6,38.7,24.5,36.4,42.9,76.9,60.6,116,29.5,65.1,60,132.4,119.4,181.5,26.7,22.1,46.3,51.8,65.3,80.6,13.9,21.1,28.3,42.9,45.4,61.5,57.8,63.2,75.5,94.2,81.5,178.3,1.6,21.7,6,44.9,10.4,67.4,6.9,35.8,14,72.7,10.5,106.8-1,9.5-2.9,19.3-4.8,28.7-2.8,13.9-5.6,28.2-5.7,42.6h1c0-14.3,2.9-28.6,5.6-42.4,1.9-9.4,3.8-19.2,4.8-28.7Z"/><path class="b" d="M1875.4,1064c-11.2-10.7-22.7-21.7-30.5-35.5-25.6-45.7-33.3-97.3-39-146.2-.9-7.8-1.7-15.8-2.5-23.5-2.3-22-4.6-44.7-8.9-65.5-9.9-48.1-43.4-84-75.8-118.7-20.6-22-41.8-44.8-56.7-70.4-13.1-22.5-30.1-41.5-46.5-59.9-13.3-14.9-27.1-30.3-38.5-47.3-15.3-22.9-22.7-50.2-30-76.6-4.4-16-8.9-32.6-15.1-47.9-41.7-103.3-98.4-194.4-157.6-286.5-15-23.2-15.5-45.7-16-69.5-.1-5.3-.3-10.7-.5-16.1h-1c.3,5.4,.4,10.8,.5,16.1,.6,24,1.1,46.6,16.2,70,59.2,92,115.9,183.1,157.6,286.3,6.2,15.3,10.7,31.8,15.1,47.8,7.3,26.5,14.7,53.9,30.1,76.9,11.4,17,25.2,32.5,38.6,47.4,16.4,18.3,33.4,37.3,46.4,59.7,14.9,25.7,36.2,48.5,56.8,70.6,32.3,34.6,65.7,70.3,75.5,118.2,4.3,20.7,6.6,43.4,8.9,65.4,.8,7.8,1.6,15.8,2.5,23.5,5.7,49,13.4,100.7,39.1,146.6,7.8,13.9,19.4,25,30.6,35.8,14.9,14.2,30.3,29,36.6,50.4,1,3.4,1.7,6.8,2.1,10.2h1c-.4-3.5-1.1-7-2.1-10.5-6.4-21.7-21.9-36.5-36.9-50.8Z"/><path class="b" d="M1897.8,979.2c-27.7-36.1-44-61.9-55.8-102.5-6.3-21.6-4.6-52.6-3-82.6,1.2-22.3,2.3-43.4,.1-59.2-6-42.7-37.3-65.6-67.5-87.7-24.2-17.7-49.2-36-62-64.4-19.7-43.8-22.1-82.2-24.1-113-1.2-19.6-2.3-36.5-7.4-50.2-8.2-22.1-19-31.6-29.5-40.8-6.7-5.9-13.7-12-19.9-21.5-10.6-16-9.9-34.6-9.3-51,.3-8.8,.6-17.1-.8-24.3-2.6-13.5-7-26.7-11.3-39.5-2.1-6.4-4.4-13-6.3-19.5-10-33.4-17.5-67.4-24.7-100.3-4.4-20.2-9-41.1-14.2-61.6-5.4-21.7-12.6-39.1-19.6-56-.6-1.5-1.3-3-1.9-4.6h-1.1c.7,1.6,1.3,3.3,2,4.9,6.9,16.8,14.1,34.2,19.5,55.9,5.1,20.5,9.7,41.4,14.2,61.6,7.2,32.9,14.7,66.9,24.7,100.4,2,6.6,4.2,13.2,6.3,19.6,4.3,12.8,8.7,26,11.3,39.4,1.4,7.1,1.1,15.4,.7,24.1-.6,16.5-1.3,35.3,9.5,51.6,6.3,9.6,13.3,15.7,20.1,21.7,10.3,9.1,21,18.6,29.2,40.4,5.1,13.6,6.1,30.4,7.4,49.9,2,30.9,4.4,69.4,24.2,113.4,12.9,28.7,38,47.1,62.3,64.8,31.5,23,61.2,44.8,67.1,87.1,2.2,15.7,1.1,36.8-.1,59-1.6,30.1-3.3,61.1,3,82.9,11.9,40.8,28.2,66.6,56,102.8,11.8,15.3,25.7,30,40.4,45.5,29.2,30.7,59,62.1,72.5,100h1.1c-13.5-38.2-43.6-69.8-72.9-100.7-14.6-15.7-28.5-30.3-40.2-45.6Z"/><path class="b" d="M1950.7,980.7c-53.7-37.3-78.3-74.7-87.8-133.6-2.8-17.2-.8-34.4,1.3-52.6,3.3-29,6.8-59.1-7.5-94.9-10.2-25.7-31.1-47.5-53.2-70.6-23.2-24.2-47.2-49.3-58.2-79.6-11.2-31.1-14.8-55.1-18.2-78.3-6.1-41-11.4-76.3-59.6-134-25.9-31-29.2-66.7-33.4-111.8-4.1-44.1-9.2-99-38.3-166.3-9.9-23-7.9-39.6-6.1-54.2,.2-1.5,.4-3.1,.5-4.6h-1c-.2,1.5-.3,2.9-.5,4.4-1.8,14.8-3.8,31.5,6.2,54.8,29.1,67.2,34.1,122,38.2,166,4.2,45.3,7.5,81.2,33.6,112.4,48,57.5,53.3,92.7,59.3,133.5,3.3,22.1,7,47.2,18.3,78.5,11,30.5,35.1,55.6,58.4,79.9,22,23,42.8,44.7,53,70.2,14.1,35.6,10.7,65.5,7.4,94.4-2.1,18.3-4.1,35.5-1.3,52.9,5,30.9,14.1,55.4,28.8,77.1,13.8,20.4,32.7,38.6,59.4,57.2,38.9,27,57.1,73.7,68.7,111.3,3.6,11.6,6.5,22.4,8.8,32.4h1c-2.3-10.1-5.3-21.1-8.9-32.7-11.4-37.7-29.8-84.6-68.9-111.8Z"/><path class="b" d="M2268.4,157.5c-7.7,34.3-3.1,67.6,12.4,91.5,13.3,20.4,33.6,33.4,60.3,38.7,4.8,.9,9.3,1.4,13.5,1.4,44.3,0,57.2-50.1,68.6-94.7,5-19.4,9.7-37.7,16.6-51.4,13.3-26.3,30.1-26.9,49.5-27.5,13.1-.4,26.6-.8,40.7-9,25.1-14.7,41.1-66.3,45.4-81.8,2.3-8.3,4.2-16.4,5.8-24.4h-1c-1.6,7.9-3.5,16-5.7,24.1-4.3,15.4-20.1,66.7-44.9,81.2-13.8,8.1-27.2,8.5-40.2,8.9-19,.6-36.9,1.2-50.4,28-6.9,13.8-11.6,32.2-16.6,51.6-6.4,24.9-13,50.6-24.9,69-13.4,20.7-31.7,28.4-56.1,23.6-26.4-5.2-46.5-18.1-59.6-38.3-15.4-23.6-19.9-56.7-12.3-90.7,3.8-16.9,7-33.5,10.5-51.2,6.7-34.6,13.6-69.8,24.6-106.2h-1c-10.9,36.4-17.8,71.5-24.5,106.1-3.7,17.6-6.9,34.3-10.7,51.1Z"/><path class="b" d="M2357.9,203.8c4.4,2.5,8.5,3.8,12,3.8,2.9,0,5.5-.9,7.6-2.6,8.4-7,10.4-17.1,5.4-28.6-6.5-15.2-23.3-27.6-35.2-26.2-5.3,.6-12,4.2-14.1,17.4-1.9,11.7,11.3,28.7,24.3,36.2Zm-23.3-36c1.6-10,6.2-15.7,13.3-16.6,.6-.1,1.2-.1,1.9-.1,11.3,0,26.2,11.7,32.3,25.7,2.7,6.4,5.7,18.4-5.1,27.4-4.3,3.6-10.9,3.1-18.5-1.3-12.6-7.1-25.7-24-23.9-35.1Z"/><path class="b" d="M2374.7,33.6c1.2,10.6,10.6,19.4,24.5,23.1,4.1,1.1,8.7,1.7,13.5,1.7,14.8,0,32.2-5.9,44.7-22.9,5.2-7.2,9.6-21.1,10.8-35.1h-1.1c-1.2,13.8-5.5,27.7-10.5,34.6-16.3,22.2-41,25.1-57.1,20.9-13.5-3.6-22.6-12.1-23.7-22.2-1.3-10.9,6.4-22.4,21.9-33.2h-1.7c-19.9,13.9-22.1,26.3-21.3,33.1Z"/><path class="b" d="M2325.1,112l-.4,1.2c-10.3,32.2-26,80.7,14.9,104,10.9,6.2,20,9.3,27.6,9.3,4.2,0,7.9-1,11.2-2.8,17.9-10.3,18.1-47.2,18.3-79.7,.1-20.5,.2-39.8,4.8-49.1,8.9-17.7,24.9-23.6,41.9-29.9,17-6.2,34.6-12.7,44.2-32,4.7-9.3,6.7-20.5,7.1-32.6h-1c-.5,11.9-2.5,23-7,32.1-9.5,19-26.9,25.4-43.7,31.6-16.4,6-33.4,12.2-42.5,30.4-4.7,9.4-4.8,28.9-5,49.5-.2,32.3-.4,68.8-17.8,78.9-8.8,5.1-21.2,3-37.8-6.4-40.1-22.8-24.7-71-14.4-102.8l.4-1.2c4.2-13,7.5-25.6,10.7-37.9,6.7-25.6,13.1-49.9,26.4-74.2h-1.1c-13.2,24.2-19.6,48.4-26.3,73.9-3,12.1-6.3,24.7-10.5,37.7Z"/><path class="b" d="M2313,77.4c-1.5,5.5-2.9,10.9-4.4,16.3-15,55.2-28,102.8,.8,139.8,15.2,19.6,31.6,29.9,47.3,29.9h.3c11.5-.1,21.8-5.8,29.8-16.5,17.3-23.2,24.2-67.5,28.3-93.9,.7-4.6,1.3-8.6,1.9-12,8.4-48.1,32.1-51.4,57.1-54.8,20.1-2.8,40.9-5.6,54.1-32.6,6.8-13.8,4.2-33.3,.2-53.3h-1c4,19.9,6.5,39.3-.1,52.9-12.9,26.5-33.5,29.3-53.3,32-25.4,3.5-49.5,6.8-58,55.7-.6,3.4-1.2,7.4-1.9,12-4.1,26.4-10.9,70.5-28.1,93.5-7.8,10.4-17.9,16-29,16.1h-.3c-15.4,0-31.5-10.2-46.5-29.5-28.5-36.6-15.6-84-.6-138.9,1.5-5.4,2.9-10.8,4.4-16.3,4.1-15.5,6.6-36.2,8.9-54.5,1-8.1,2-16,3-22.9h-1c-1,6.9-2,14.7-3,22.8-2.2,18.1-4.8,38.8-8.9,54.2Z"/><path class="b" d="M2214.1,73.8c1.7,3.9,3.7,7.8,5.7,11.5,3.1,5.9,6.3,12,8.2,18.5,3.4,11.7,2.3,24.2,.9,34.9-4.6,33.6-16.1,66.8-33.2,96-1.6,2.7-3.3,5.5-4.9,8.2-9.5,15.7-19.4,32-19.4,50.3,0,12.5,7.6,25.8,18.6,32.5,7.9,4.8,16.2,5.3,23.4,1.4,8.7-4.6,14.1-14.3,19.2-23.6,6.5-11.8,12.8-23,24.9-22,5.7,.4,10.7,3.8,15.5,7.1l1.4,1c22.6,15.3,49.7,22.6,77,22.6,38.5,0,77.2-14.8,103.6-42.9,6.5-6.9,12.6-14.8,18.4-22.3,14.3-18.4,29-37.5,51-44.5,21.3-6.8,44-.5,65.9,5.6,4.6,1.3,9.3,2.6,13.9,3.8,48.2,12.2,96.9,8.9,137.1-9.3,8.1-3.7,16.8-7.1,25.3-10.5,36.3-14.5,73.9-29.4,82.5-66.3,.9-3.9,.5-7-1.2-9.5-3.8-5.6-13.8-7.2-24.3-8.8-15.3-2.4-32.7-5.1-35.2-20.8-1.6-10.3,9.1-30.2,20.5-51.2,6.2-11.5,12.7-23.5,17.9-35.1h-1.1c-5.1,11.4-11.5,23.3-17.7,34.6-12,22.1-22.3,41.2-20.6,51.9,2.6,16.5,20.4,19.2,36,21.6,10.3,1.6,20.1,3.1,23.6,8.4,1.5,2.3,1.9,5.1,1,8.7-8.5,36.4-45.8,51.3-81.9,65.6-8.4,3.4-17.2,6.8-25.3,10.5-40,18.1-88.5,21.4-136.4,9.3-4.6-1.2-9.3-2.5-13.9-3.8-22-6.1-44.8-12.5-66.5-5.6-22.3,7.1-37.1,26.3-51.5,44.8-5.9,7.6-11.9,15.4-18.4,22.3-44.7,47.6-125.1,56.6-179.3,20.1l-1.4-1c-4.9-3.4-10-6.8-16-7.3-12.8-1-19.2,10.5-25.9,22.6-5.1,9.2-10.4,18.7-18.8,23.2-6.9,3.7-14.8,3.2-22.4-1.4-10.7-6.5-18.2-19.5-18.2-31.6,.1-18,9.8-34.2,19.3-49.8,1.6-2.7,3.3-5.5,4.9-8.2,17.1-29.4,28.7-62.7,33.3-96.4,1.5-10.8,2.6-23.4-.9-35.3-1.9-6.6-5.2-12.7-8.3-18.7-2-3.7-4-7.5-5.6-11.4-10.1-23.4-8.4-47.8-3.3-73.1h-1c-4.8,25.3-6.5,49.8,3.6,73.4Z"/><path class="b" d="M2099.8,1046.3c4.8-27.4,14.5-40.5,24.8-54.4s21-28.4,28.3-58.2c9.1-37,8.9-90.3-7.1-111.6-4.3-5.7-9.4-8.7-15.2-8.9h-.4c-10.5,0-12.9,19.5-15.8,42-3.1,24.5-6.5,52.3-21.5,58.1-9.5,3.7-22.6-1.7-40.1-16.5-24.2-20.6-21.7-32.9-17.8-51.5,1-4.9,2.1-10.4,2.9-16.5,3.8-31.6,1-37.9-14.5-66-2.8-5.1-5.7-10.2-8.5-15.2-21.7-38.8-42.3-75.4-49.5-119-4.2-25.4-15.3-44.2-25.2-60.9-13.7-23.2-25.6-43.3-14-73.1,16.5-42.2,17.4-90.4,18.3-137,.4-21.9,.8-44.6,2.9-65.9,2.5-25.5,6.1-49.6,23.1-65,7.9-7.2,18.1-11.5,27.8-15.6,7-3,14.3-6.1,20.8-10.2,33.3-21.3,41.4-65.7,44.6-97.2,.9-9.3,1.5-18.3-1.5-26.7-3.9-10.7-13.2-18.4-21.7-24.5-6.4-4.6-13.3-8.9-19.9-13.1-17.3-11-35.2-22.3-47.3-38.8h-1.2c12.2,16.9,30.4,28.5,47.9,39.7,6.6,4.2,13.5,8.5,19.9,13.1,8.4,6,17.5,13.5,21.3,24,3,8.2,2.4,17.1,1.4,26.3-3.2,31.3-11.2,75.4-44.1,96.5-6.4,4.1-13.7,7.2-20.7,10.2-9.9,4.2-20.1,8.5-28.1,15.8-17.2,15.6-20.9,40-23.4,65.6-2.1,21.4-2.5,44.1-2.9,66-.9,46.5-1.8,94.6-18.2,136.6-11.8,30.2,.2,50.5,14.1,73.9,9.8,16.6,20.9,35.3,25,60.5,7.2,43.8,27.8,80.5,49.6,119.4,2.8,5,5.7,10.1,8.5,15.2,15.7,28.4,18.2,34,14.4,65.4-.7,6.1-1.9,11.6-2.9,16.4-3.9,19-6.5,31.5,18.2,52.5,17.7,15.1,31.2,20.5,41.1,16.7,15.5-6,19-34.1,22.1-58.9,2.6-21.2,5.1-41.2,14.8-41.2h.3c5.5,.2,10.4,3.1,14.5,8.5,15.9,21.1,16,73.9,7,110.8-7.3,29.7-17.9,44-28.1,57.9-10.4,14-20.1,27.2-25,54.8-4.6,26.1-.1,53,5,79.2h1c-5.2-27.3-9.6-53.1-5-79.2Z"/><path class="b" d="M2788,808.2c-6.7-22.6-15.6-45.9-24.2-68.4-16-41.9-32.5-85.1-36.8-128.5-3.7-37.6,12.4-86,26.6-128.6,6.6-19.8,12.8-38.5,16.7-54.7,10.5-44.2,34.4-91.2,59.7-140.9,30.5-59.8,62-121.7,67.6-178,3.7-36.6-.9-65.6-4.9-91.1-.9-6-1.8-11.8-2.6-17.6h-1c.8,5.9,1.7,11.8,2.7,17.8,4,25.5,8.5,54.3,4.9,90.9-5.6,56.1-37.1,117.9-67.5,177.7-25.3,49.8-49.3,96.8-59.8,141.1-3.8,16.2-10,34.9-16.6,54.6-14.2,42.7-30.4,91.2-26.6,129,4.3,43.5,20.9,86.9,36.9,128.8,8.6,22.5,17.5,45.7,24.1,68.3,11.4,38.7,25.9,77.4,40,114.8,24.4,65,49.6,132.2,59.6,202.1h1c-9.9-70-35.2-137.3-59.6-202.4-14.3-37.6-28.8-76.3-40.2-114.9Z"/><path class="b" d="M2160.8,713.6c-3.4,24.3-5.7,55.3,6.2,78.8,1.9,3.8,3.8,7.7,5.8,11.6,15.7,31.6,31.9,64.3,53.1,64.3,.6,0,1.2,0,1.8-.1,1.8-.2,3.3-.9,4.2-2.2,3.5-4.9,.4-17-3.9-33.8-6.4-25.2-15.1-59.7-7.3-91.8,1.1-4.4,4.4-11.7,8.2-20.1,10-21.9,23.6-52,14-65.3-3.9-5.4-11.5-7.6-22.4-6.3-14.2,1.6-27.6,8.1-37.9,18.3-11.7,11.5-19.2,27.6-21.8,46.6Zm59.6-64c2-.2,3.8-.3,5.5-.3,7.6,0,13,2.1,16,6.3,9.3,12.8-4.2,42.6-14.1,64.3-3.9,8.5-7.2,15.8-8.3,20.3-7.8,32.3,.9,67,7.3,92.3,4,15.9,7.2,28.5,4,33-.8,1.1-1.9,1.7-3.5,1.8-21.4,1.9-38.6-33-53.9-63.7-1.9-3.9-3.9-7.8-5.8-11.6-11.8-23.3-9.5-54-6.1-78.2,6.3-43.3,34.5-61.5,58.9-64.2Z"/><path class="b" d="M2200.5,582c-29.4,4.9-62,42.7-67.1,77.9-6.8,47.1,3.9,104.4,31.8,170.3,3.4,8.1,8.6,12,13.6,15.7,6.4,4.7,12.5,9.2,14.9,22.2,3.8,19.9,14.5,34.2,28.6,38.1,2.4,.7,4.9,1,7.3,1,7.3,0,14.3-3.1,19.5-8.9,16.3-18.1,3-62.9-6.8-95.6-3.3-11-6.1-20.4-7.3-27.1-4.7-26.7,8.6-44.8,22.7-64,13.6-18.4,27.6-37.5,23.5-64.6-1-6.9-6.9-10.7-13.7-15.2-7.5-4.9-16-10.5-21.7-21.7-13.7-27.2-32.2-30.3-45.3-28.1Zm44.5,28.5c5.8,11.4,14.8,17.4,22.1,22.1,6.9,4.5,12.3,8.1,13.3,14.5,4,26.7-9.9,45.6-23.4,63.9-13.6,18.5-27.7,37.6-22.9,64.8,1.2,6.7,4,16.2,7.3,27.2,9.7,32.5,23,76.9,7,94.6-6.7,7.4-16.3,10.2-25.8,7.6-13.7-3.8-24.1-17.8-27.9-37.3-2.5-13.3-9-18.1-15.3-22.8-4.9-3.6-10-7.4-13.3-15.2-27.8-65.7-38.5-122.8-31.7-169.8,5-34.8,37.2-72.2,66.3-77,18.2-3.2,33.6,6.4,44.3,27.4Z"/><path class="b" d="M1893.1,1044.7c-24.5-25.5-47.6-49.7-60.8-88.3-2.1-6.3-4.1-11.9-5.9-16.8-8.9-24.8-13.8-38.4-15.3-78.5-1-26.3-5.3-91.9-24.6-132.4-11.3-23.8-27.2-35.4-43.9-47.6-8.5-6.2-17.3-12.6-26-20.9-25.5-24.4-38.6-52.8-52.5-82.8-5.6-12.1-11.4-24.7-18.1-37.1-48.2-89-71.6-162.3-101.8-264-14.5-48.9-41.2-90.1-66.9-129.8-17.9-27.6-36.4-56.1-50.1-86.5-8.5-18.8-9.8-39.4-10.4-59.6h-1c.5,20.3,1.8,41,10.5,60,13.8,30.4,32.3,59,50.2,86.6,25.7,39.7,52.4,80.8,66.8,129.6,30.2,101.8,53.6,175.1,101.8,264.2,6.7,12.4,12.5,24.9,18.1,37,13.9,30.1,27.1,58.6,52.7,83.1,8.7,8.4,17.5,14.8,26.1,21,16.7,12.1,32.4,23.6,43.6,47.2,19.2,40.4,23.5,105.8,24.5,132,1.5,40.3,6.7,54.8,15.3,78.8,1.8,4.9,3.8,10.5,5.9,16.8,13.2,38.9,36.4,63,61,88.7,19.8,20.6,40.2,42,54.8,71.6,1.4,2.9,2.7,5.6,3.9,8.3h1.1c-1.2-2.8-2.6-5.7-4.1-8.7-14.6-29.8-35.1-51.2-54.9-71.9Z"/><path class="b" d="M520.2,1113.4c-11.2-1.9-20.9-5.7-30.3-9.4-11.8-4.6-23.9-9.4-38.8-10.3-12-.8-24,1.5-35.7,3.6-12.7,2.3-25.9,4.8-38.9,3.3-41.2-4.6-64.4-30.1-88.8-57.1-10.3-11.3-20.9-23-33.1-33.4-10.7-9.1-22.6-14.9-33-20-21.8-10.7-37.5-18.4-30.5-46.7,7.3-29.3,73.3-74.3,108.1-79.2,17.3-2.4,31.6,4,46.7,10.7,10.4,4.6,21.2,9.5,33,11.1,22.2,3,44.4-1.8,65.8-6.4,3.5-.8,7-1.5,10.5-2.2,24.7-5.1,50.2-9.6,74.8-13.9,36.3-6.4,73.9-13,109.9-21.8,73.1-17.8,167.7-56.4,203.3-139.2,9.1-21.1,31.1-77.3,39.2-143,7.5-60.4,.1-109.4-21.2-141.8-10.7-16.2-31.8-30.8-52.3-44.9-24.3-16.8-49.5-34.1-56-53.7-8.8-26.3,9.5-52.3,27.2-77.5,11.6-16.5,23.7-33.6,27.4-50.3,11.5-51.2-30.9-76.3-78.5-95.8-5-2.1-10.1-4.2-15-6.3-27-11.2-52.4-21.9-73.6-22.4-29.3-.6-53.4,13.1-74.7,25.1-17.8,10.1-33.3,18.9-46.2,15-11.6-3.5-18.3-7.6-21.1-13.1-4-7.8-.3-18.7,4.9-33.7l.3-.8c6.4-18.5,21.9-38.8,36.8-58.5,.2-.2,.3-.4,.5-.6h-1.3c-15,19.7-30.5,40.2-37,58.8l-.3,.8c-5.3,15.2-9.1,26.3-4.9,34.5,3,5.8,9.7,10,21.7,13.6,13.3,4,28.9-4.9,47-15.1,21.2-12,45.1-25.6,74.2-25,21,.5,46.3,11.1,73,22.3,4.9,2.1,10,4.2,15,6.3,47.2,19.3,89.3,44.1,77.9,94.6-3.7,16.5-15.7,33.5-27.2,49.9-17.9,25.3-36.3,51.6-27.3,78.4,6.7,19.9,32,37.4,56.4,54.2,20.4,14.1,41.5,28.6,52.1,44.6,21.2,32.2,28.5,81,21,141.1-8.1,65.5-30,121.6-39.1,142.7-35.4,82.5-129.8,120.9-202.6,138.7-36,8.8-73.5,15.4-109.9,21.8-24.6,4.3-50.1,8.8-74.8,13.9-3.5,.7-7,1.5-10.5,2.2-21.3,4.6-43.4,9.4-65.5,6.4-11.6-1.6-22.3-6.4-32.7-11-14.6-6.5-29.7-13.2-47.3-10.8-16.2,2.3-41.4,14.1-64.2,30.2-24.9,17.6-41.2,35.7-44.8,49.8-7.3,29.1,9.6,37.4,31,47.9,10.4,5.1,22.2,10.9,32.8,19.9,12.2,10.3,22.8,22,33,33.3,24.6,27.1,47.8,52.8,89.5,57.4,13.2,1.5,26.4-1,39.2-3.3,11.6-2.1,23.6-4.4,35.4-3.6,14.7,.9,26.8,5.7,38.5,10.2,9.5,3.7,19.3,7.5,30.5,9.4,15.3,2.6,29.3,3.7,42.8,4.7,16.4,1.3,32.2,2.5,48.9,6.2h4.5c-18.4-4.5-35.5-5.8-53.3-7.2-13.2-1-27.2-2.1-42.4-4.6Z"/><path class="b" d="M1629.3,999.8c8.9-3.3,18.9-7,29.9-11.7,21.6-9.2,37.2-24.5,45.1-44.1,8.6-21.4,7.4-46.9-3.2-71.7-11.4-26.6-32.5-38.7-54.8-51.4-9.7-5.6-19.7-11.3-29.4-18.5-16.3-12-25.2-24.5-35.5-38.9-2.6-3.7-5.4-7.5-8.3-11.5-13.7-18.3-32.8-33.2-51.2-39.8-65.2-23.4-95.2-36.4-123.1-99.6-4.9-11.1-9.5-22.3-14.4-34.2-20-48.8-40.7-99.3-79.1-134.6-27.5-25.3-54.4-19.8-85.6-13.5-12.5,2.5-25.5,5.2-39.8,6.3-66.5,5.3-89.9-11.1-135.3-55.8-9.4-9.3-28.5-21.4-48.7-34.2-35.6-22.6-76-48.3-81-68.5-3.6-14.6,7.7-35,17.6-53.1,5.4-9.9,10.6-19.3,12.6-26.5,9-32.8,7.7-52.6-5.6-81.8-17.5-38.5-43.7-59.3-71.5-81.4-13.4-10.6-27.3-21.6-40.6-35h-1.4c13.6,13.7,27.7,25,41.4,35.8,27.7,22,53.9,42.7,71.2,80.9,13.2,28.9,14.5,48.6,5.5,81.1-2,7.1-7.1,16.4-12.5,26.3-10,18.2-21.3,38.9-17.7,53.8,5.1,20.6,45.6,46.4,81.4,69.1,20.2,12.8,39.2,24.9,48.6,34.1,45.6,44.9,69.1,61.4,136,56.1,14.4-1.1,27.4-3.8,40-6.3,32.2-6.5,57.7-11.7,84.7,13.2,38.2,35.2,58.9,85.6,78.8,134.3,4.9,11.9,9.5,23.2,14.4,34.2,28,63.6,58.2,76.6,123.6,100.1,18.2,6.5,37.2,21.3,50.7,39.5,2.9,3.9,5.7,7.8,8.3,11.5,10.3,14.5,19.3,27,35.7,39.2,9.7,7.2,19.8,13,29.5,18.5,22.1,12.7,43,24.7,54.3,51,10.5,24.5,11.7,49.7,3.2,70.9-7.8,19.4-23.2,34.5-44.5,43.6-11,4.7-21,8.4-29.9,11.7-39.8,14.8-61.7,23-82.2,79.7-5.6,15.5-10,31.3-14.1,46.8h1c4.1-15.4,8.5-31.1,14-46.4,20.7-56.4,42.4-64.5,81.9-79.2Z"/><path class="b" d="M996.5,1068.8c-18.1-7.1-36.7-14.4-54.3-24.3-51.3-29-113.1-42.6-169.7-37.4-.9,.1-3.6,.2-7.8,.3-31.2,1.2-126.3,4.9-128.6,21.7-2.2,16.2,52.3,32.5,75.6,39.5,4,1.2,6.9,2.1,8,2.5,36.5,14.2,69.5,31.5,102.7,54.1h1.8c-33.7-23-67.1-40.6-104.2-55-1.2-.5-4.1-1.3-8.1-2.5-21.1-6.3-77-23-74.9-38.4,1.5-10.6,44.4-17.6,127.7-20.9,4.2-.2,6.9-.3,7.8-.4,56.3-5.2,118,8.4,169.1,37.2,17.6,9.9,36.3,17.3,54.4,24.3,33.6,13.1,65.4,25.6,91.4,53.5,.6,.7,1.2,1.4,1.9,2.1h1.4c-.8-.9-1.6-1.8-2.5-2.7-26.2-27.9-59.5-41-91.7-53.6Z"/><path class="b" d="M1685.2,1090.9c3.5-1.8,7.1-3.7,10.8-5.7,35.9-19,55.6-70.8,62.4-92.2,9.7-30.6,13-70.4,8.5-103.9-5.1-38.7-27.5-70.8-46.4-94.4-9-11.3-19.3-21.9-29.3-32.2-11-11.4-22.5-23.2-32.3-36-10.4-13.5-17.3-29.6-24.1-45.1-6.8-15.7-13.8-32-24.3-45.3-14.3-18.1-32.9-30.5-50.9-42.4-14.9-9.9-30.3-20.1-43.1-33.5-8.8-9.2-15.7-19.9-22.3-30.2-6.1-9.5-12.3-19.3-20.1-27.8-5.4-6-10.7-8.9-16.2-12-6.3-3.5-12.9-7.2-20.6-15.8-12.6-14.1-21.1-45.5-28.6-73.2-5.2-19.1-10-37.2-15.8-48.3-22.6-44.3-52.6-58.9-87.3-75.8-28.9-14-61.6-29.9-96.1-66.3-5.2-5.5-15.1-7.3-26.6-9.4-16.5-3-35.3-6.5-44.8-22-10.9-17.8-.1-34.1,7.9-45.9,3.3-5,6.2-9.3,6.9-12.9,4-20.3,.2-30.2-3.2-38.8-1.7-4.4-3.3-8.5-3.8-13.6-2.6-26.8-9.8-48.4-19.4-67.8h-1.1c9.7,19.4,17,41,19.5,67.9,.5,5.3,2.1,9.4,3.9,13.9,3.3,8.5,7.1,18.2,3.2,38.3-.6,3.3-3.5,7.6-6.8,12.5-8.1,12.1-19.1,28.7-7.9,47,9.7,15.9,28.7,19.4,45.5,22.4,11.3,2.1,21.1,3.9,26.1,9.1,34.6,36.5,67.4,52.4,96.4,66.5,34.6,16.8,64.4,31.3,86.9,75.3,5.7,11.1,10.5,29.1,15.7,48.1,7.5,27.8,16.1,59.4,28.8,73.7,7.8,8.7,14.4,12.5,20.8,16,5.5,3.1,10.6,6,15.9,11.8,7.7,8.4,13.9,18.2,20,27.7,6.6,10.4,13.5,21.1,22.4,30.4,12.9,13.5,28.4,23.8,43.3,33.7,17.9,11.9,36.5,24.2,50.6,42.2,10.4,13.2,17.4,29.4,24.2,45,6.8,15.6,13.8,31.8,24.2,45.4,9.9,12.8,21.3,24.7,32.4,36.1,10,10.3,20.3,20.9,29.3,32.2,18.8,23.5,41.1,55.4,46.2,93.9,4.4,33.3,1.2,72.9-8.5,103.4-6.7,21.3-26.3,72.8-61.9,91.6-3.8,2-7.4,3.9-10.8,5.6-21.5,11.1-37.1,19.2-51.9,35.3h1.4c14.5-15.6,29.8-23.6,50.9-34.5Z"/><path class="b" d="M50.1,1100.7c-6.9-2.8-11.4-2.5-15.1-2.2-4,.3-6.9,.5-11-3.5-3.2-3.2-3.6-6.9-4-10.8-.6-5.6-1.2-11.4-10.7-15.2-1-.4-2.1-.8-3-1.2-2.2-.9-4.3-1.7-6.3-2.5v1.1c1.9,.8,3.9,1.6,5.9,2.4,1,.4,2,.8,3,1.2,8.9,3.5,9.5,8.8,10,14.3,.4,3.9,.8,8,4.3,11.5,4.5,4.4,7.7,4.1,11.8,3.8,3.5-.3,7.9-.6,14.6,2.1,5.2,2.1,10.1,6.7,15.6,12.1,3.8,3.7,8.1,7.7,13.1,11.6h1.6c-5.4-4.1-9.9-8.4-14-12.3-5.5-5.5-10.4-10.2-15.8-12.4Z"/><path class="b" d="M3061.5,1086.1c-1-32,.5-59.5,1.9-86.1,1.4-25.8,2.9-52.6,2.1-83.6-2.2-81.7-37.7-132.4-78.7-191.1-68.9-98.4-81.4-234.7-30.5-331.4,10.5-19.9,22.4-39,33.9-57.5,18.6-29.9,37.8-60.7,51.2-95.3,7.6-19.6,14.8-39.6,21.7-58.9,17.7-49.4,36-100.4,62.7-148.2,6.3-11.3,12.5-22.6,18.7-33.8h-1.1c-6.1,11.1-12.2,22.3-18.4,33.4-26.7,47.8-45,98.9-62.7,148.3-6.9,19.3-14.1,39.2-21.7,58.9-13.3,34.5-32.5,65.3-51.1,95.1-11.5,18.5-23.4,37.6-33.9,57.6-25.6,48.6-35.6,107.1-29.1,169.4,6.2,59.1,27.4,117,59.6,163,41,58.5,76.3,109.1,78.5,190.5,.8,31-.6,57.7-2.1,83.5-1.5,26.6-3,54.1-1.9,86.2l.5,15.7c.3,8.1,.5,15.9,.8,23.4h1c-.2-7.5-.5-15.3-.8-23.4l-.6-15.7Z"/><path class="b" d="M3028.5,1032.7c1.4-40.6,3-86.5-10.2-121.9-9.9-26.5-29.2-49.4-47.8-71.6-16.4-19.5-33.4-39.7-44-62.3-46.9-99.8-73.9-251-28.5-363.6,12.4-30.7,28.8-59.4,44.6-87.1,14.1-24.7,28.7-50.2,40.4-77.1,14.6-33.6,24.7-69.5,34.5-104.2,8.3-29.6,16.9-60.2,28.3-89.3,7.5-19.2,16.7-37.6,26.7-55.3h-1.1c-9.9,17.7-19,35.9-26.5,55-11.4,29.1-20,59.8-28.4,89.4-9.8,34.6-19.8,70.5-34.4,104-11.7,26.8-26.2,52.3-40.3,77-15.8,27.7-32.2,56.4-44.6,87.2-20.5,50.8-27.7,114.2-20.8,183.5,6.2,62.3,23.7,126.6,49.3,181,10.7,22.8,27.7,43,44.1,62.5,18.6,22.1,37.8,44.9,47.6,71.3,13.2,35.2,11.6,81,10.1,121.5-.5,14.1-1,27.4-.8,39.8,.2,17.6,.7,35.2,1.4,52.8h1c-.7-17.6-1.2-35.3-1.4-52.8-.2-12.4,.3-25.7,.8-39.8Z"/><path class="b" d="M3010.7,1059.3c1.7-75.5-31.1-128.3-65.8-184.1-21.1-33.9-42.9-69-57.6-110.7-23.8-67.6-59-197.6-28.3-307.9,14.2-51,38.5-99.3,62.1-145.9,27.9-55.3,56.7-112.4,68.4-173.8,9.3-48.9,27.2-93.9,49.2-136.6h-1.1c-21.9,42.7-39.8,87.6-49.1,136.5-11.6,61.3-40.4,118.3-68.3,173.5-23.6,46.7-47.9,95-62.2,146.1-30.8,110.6,4.6,240.8,28.4,308.5,14.7,41.8,36.5,76.9,57.7,110.9,34.6,55.7,67.4,108.3,65.7,183.5-.5,21.9-.5,43.9-.2,66h1c-.4-22-.4-44.1,.1-66Z"/><path class="b" d="M2044,1093.2c-.7-6.5-1.2-12.6-1.7-18.5-2.5-27.7-4.2-47.7-13.9-66.3-10-19.1-28.3-36.6-61.4-58.4-67.6-44.6-70.6-107.1-73.6-167.4-1.2-25.2-2.4-49-8.2-70.8-10.1-37.9-32.1-67.2-53.3-95.6-20-26.8-40.8-54.6-51.8-89.6-9.2-29-16.2-59.2-22.9-88.4-7.5-32.4-15.3-65.8-26-97.8-7.9-23.7-20.2-48.7-32.1-72.9-17-34.5-34.5-70.2-40.6-104.1-3.3-18.1-.3-37,2.6-55.3,2.6-16.5,5.3-33.5,3.5-50.1-2.5-23.6-12.7-39-22.6-53.9-.8-1.2-1.6-2.5-2.5-3.8h-1.2c.9,1.4,1.9,2.9,2.8,4.3,9.8,14.8,19.9,30.1,22.4,53.5,1.8,16.5-.9,33.4-3.5,49.8-2.9,18.4-5.9,37.4-2.6,55.6,6.2,34.1,23.7,69.8,40.7,104.4,11.9,24.1,24.1,49.1,32,72.7,10.7,32,18.5,65.4,26,97.7,6.8,29.2,13.8,59.4,23,88.5,11.1,35.2,31.9,63,52,89.9,21.2,28.3,43.1,57.6,53.1,95.3,5.8,21.7,7,45.4,8.2,70.5,1.4,29.8,2.9,60.6,12.6,89.6,10.9,32.8,31,58.5,61.4,78.6,67.9,44.8,69.9,68,74.9,124,.5,5.9,1.1,11.9,1.7,18.5,.8,8.5,1.8,16.8,2.8,24.9,.3,2.4,.6,4.7,.8,7.1h1c-.3-2.4-.6-4.8-.9-7.2-.9-8-1.8-16.4-2.7-24.8Z"/><path class="b" d="M2983.3,1069.3c.2-70.2-23.3-107.3-50.4-150.2-13.7-21.7-27.9-44.1-40.8-73.2-37.9-85-79.6-198.3-65.1-319.9,9.4-78.8,41.5-149.8,72.6-218.5,24.6-54.2,49.9-110.3,63.9-169.8,3-12.9,5.8-26.1,8.5-38.8,6.8-32.6,13.9-66.4,26.3-98.5h-1c-12.3,32.1-19.4,65.8-26.2,98.3-2.7,12.7-5.4,25.8-8.4,38.8-14,59.4-39.3,115.4-63.9,169.6-31.1,68.8-63.3,139.9-72.7,218.8-14.5,121.9,27.3,235.3,65.2,320.4,13,29.1,27.2,51.6,40.9,73.3,27.1,42.8,50.4,79.8,50.3,149.7v56h1c-.2-19-.2-37.5-.2-56Z"/><path class="b" d="M2855.4,825.6c-58.5-145.5-69.5-257.5-36.8-374.4,12.1-43.3,28.7-81.6,46.2-122.1,7-16.3,14.3-33.1,21.3-50.4,19.3-47.7,30.8-87.4,44.1-133.5,3.4-11.8,6.9-24.1,10.7-36.7,6.5-22,10.9-47.5,15-72,2-12,4.1-24.2,6.5-36.1h-1c-2.3,11.8-4.4,24-6.5,35.9-4.2,24.5-8.5,49.9-15,71.9-3.8,12.7-7.3,24.9-10.7,36.7-13.3,46-24.8,85.8-44.1,133.4-7,17.3-14.3,34.1-21.3,50.4-17.5,40.5-34.1,78.8-46.2,122.2-17.6,62.8-22.3,125-14.3,190.1,6.9,56.7,23.2,115.4,51.1,185,10.3,25.5,22.2,51.3,33.7,76.2,32.9,71,66.8,144.2,67.6,223.2h1c-.9-79.2-34.8-152.5-67.7-223.6-11.4-25-23.3-50.7-33.6-76.2Z"/><path class="b" d="M2065.5,1094.3c-7.3-45.7-5.5-65.1-4.3-78,1.1-12.3,1.7-18.4-7.1-35.3-6.2-11.9-20-17-33.2-22-14.7-5.5-28.6-10.7-33.5-24.2-12.9-35.3-27.9-55.7-41.1-73.7-11-14.9-21.3-29-28.6-49.1-6.7-18.7-4.4-35.8-2-53.8,3.6-26.9,7.7-57.3-17.3-100.7-9.2-15.9-21.9-29-34.2-41.7-17-17.6-34.6-35.7-42.2-61.1-9.8-32.5-12.9-68.7-15.9-103.7-1.2-13.6-2.4-27.7-4-41.1l-.9-7.6c-11.5-97.3-21.4-181.4-52.8-274.8-15.4-45.8-15-71.2,2-113.1,.7-1.8,2.9-5.1,5.5-8.9,1.1-1.6,2.2-3.4,3.4-5.2h-1.2c-1,1.6-2.1,3.1-3,4.6-2.7,4-4.8,7.2-5.5,9.1-17.1,42.2-17.5,67.7-2,113.8,31.4,93.3,41.3,177.3,52.8,274.6l.9,7.6c1.6,13.4,2.8,27.5,4,41.1,3,35,6.1,71.3,15.9,103.9,7.7,25.6,25.3,43.8,42.4,61.5,12.2,12.7,24.9,25.7,34,41.5,24.9,43.2,20.8,73.4,17.2,100.1-2.5,18.1-4.8,35.3,2,54.3,7.3,20.3,17.7,34.4,28.7,49.4,13.2,17.9,28.1,38.2,41,73.4,5.1,13.9,19.8,19.4,34.1,24.8,13.1,4.9,26.7,10,32.7,21.6,8.7,16.6,8.2,22.3,7,34.7-1.2,12.9-3,32.5,4.3,78.3,.7,4.1,1.3,7.9,1.9,11.7,1.1,6.9,2.2,13.2,3.1,19.2h1c-.9-6.1-2-12.5-3.1-19.3-.7-4-1.3-7.8-2-11.9Z"/><path class="b" d="M3075.3,1068.6c.3-14.9,1-31.8,1.8-49.6,3.6-80,8-179.5-21.4-241.7-8.5-17.9-17.7-33.1-26.7-47.8-12.9-21.2-25.1-41.2-35.3-68.6-15.7-42.2-21.8-88.6-19.7-150.4,2.2-68.8,28.7-124.7,56.8-184,13.6-28.8,27.7-58.6,39-90.3,33-92.6,60.3-148.8,101.5-230.4,.9-1.8,1.8-3.7,2.8-5.5h-1.1c-.8,1.7-1.7,3.4-2.5,5.1-41.2,81.6-68.6,137.8-101.6,230.5-11.3,31.6-25.4,61.4-39,90.2-28.1,59.3-54.6,115.4-56.9,184.3-2,62,4.1,108.5,19.8,150.8,10.2,27.6,22.4,47.6,35.4,68.8,8.9,14.7,18.2,29.9,26.7,47.7,29.4,62,24.9,161.4,21.4,241.3-.8,17.9-1.6,34.7-1.8,49.6-.4,19-.1,37.9,.6,56.7h1c-1-18.8-1.2-37.7-.8-56.7Z"/><path class="b" d="M3600,819.8v-9.1c-.2,3.3-.2,6.4,0,9.1Z"/><path class="b" d="M3597.8,864.8c.7-.1,1.4-.2,2.2-.5v-1c-.8,.2-1.5,.4-2.1,.5,0,.3-.1,.6-.1,1Z"/><path class="b" d="M3593.8,864.1c0-.4,0-.8,.1-1.1-10.5-7.2-7.2-43-.8-83.7-.2-1.1-.3-2.2-.5-3.4-7.1,43.8-10.6,81.3,1.2,88.2Z"/><path class="b" d="M3594.5,764.2c.2,.9,.4,1.8,.6,2.7,1.6-9.3,3.2-18.8,4.9-28.1v-5.7c0,.1,0,.3-.1,.4-1.8,10.3-3.6,20.6-5.4,30.7Z"/><path class="b" d="M3597.3,881.1h2.7v-1h-2.7v1Z"/><path class="b" d="M3586.8,750.2c-2.8,11.4-5.4,22.9-7.8,34.1,.1,1.4,.1,2.8,.2,4.1,2.4-12,5.2-24.3,8.1-36.2-.1-.7-.3-1.4-.5-2Z"/><path class="b" d="M3593.3,879.8c-3.2-.4-6-1.5-8.5-3,0,.4,.1,.8,.1,1.3,2.4,1.5,5.2,2.4,8.3,2.8,.1-.5,.1-.8,.1-1.1Z"/><path class="b" d="M3591,733.1c-.6,2.6-1.3,5.2-1.9,7.8,.1,.9,.2,1.9,.3,2.8,.9-3.5,1.7-7,2.6-10.4,2.9-11.9,5.7-23.2,8-33.4v-4.3c-.1,.2-.1,.4-.2,.6-2.4,11.2-5.5,23.6-8.8,36.9Z"/><path class="b" d="M3579.4,871.5c-10.1-14.3-7.5-45.3-1-79.2-.1-1.4-.2-2.9-.2-4.3-7.3,36.2-10.5,68.7,.4,84,1.5,2.1,3.3,3.8,5.3,5.2,0-.4-.1-.9-.1-1.3-1.7-1.1-3.1-2.6-4.4-4.4Z"/><path class="b" d="M3600,615.9v-2c-44.2-77.4-42.1-166.6,0-233v-1.6c-14.8,23.2-25,49.6-29.8,77.9-9,53.7,1.6,110,29.8,158.7Z"/><path class="b" d="M3600,592.4v-2.3c-27.6-63-26.6-131.2,0-187.4v-1.8c-8.4,17.5-14.4,36.4-17.8,56.4-7.6,45.1-1.3,92.2,17.8,135.1Z"/><path class="b" d="M3600,551.6v-3.2c-8.5-36-8.4-72.4,0-106.2v-2.6c-1.5,5.8-2.8,11.7-3.8,17.7-5.2,31.1-3.8,63.3,3.8,94.3Z"/><path class="b" d="M3579.8,598.5c6.4,15.2,13.7,25.4,20.2,34.3v-1.7c-6.3-8.6-13.2-18.5-19.3-33-26.7-63.4-29.6-121.2-9-176.6,7-18.9,16.4-36.7,28.3-53.8v-1.7c-12.3,17.5-22,35.8-29.2,55.2-20.7,55.6-17.8,113.6,9,177.3Z"/><path class="b" d="M3538.7,556.6c3.7,22,13.1,40.6,22.3,58.5,6.7,13.1,12.9,25.4,17.1,38.9,5.6,18.2,3.1,33.1,.4,48.9-2.1,12.1-4.2,24.6-3,39.7,1.1,15,2,30.3,2.8,45.4,.1,1.4,.2,2.9,.2,4.3,.2,3,.3,6,.5,9,1.3,24.5,2.6,49.5,4.8,74.6,0,.4,.1,.9,.1,1.3,.8,9.6,1.8,19.1,3,28.7,.7,5.7,1.3,12.5,2,20.3,1.9,22.2,4.4,50.4,11.2,75.2v-3.9c-6.1-23.8-8.4-50.4-10.2-71.4-.7-7.8-1.3-14.5-2-20.3-1.1-9.3-2.1-18.6-2.9-27.9,0-.4-.1-.8-.1-1.3-2.2-25.3-3.6-50.7-4.9-75.4-.2-4.3-.5-8.6-.7-13-.1-1.4-.1-2.8-.2-4.1-.8-13.8-1.6-27.8-2.6-41.6-1.1-15,1-27.4,3-39.5,2.7-15.9,5.3-31-.4-49.4-4.2-13.6-10.5-26-17.2-39.1-9.1-17.9-18.5-36.4-22.2-58.2-16.9-101.5,0-169.7,60.3-234.9v-1.5c-27.2,29.1-45.1,57.8-55.5,88.9-13.9,41.3-15.7,88.2-5.8,147.8Z"/><path class="b" d="M3548.3,371.3c-25.4,57-24.9,133.7-22.3,174.4,1.9,29,10.7,49.4,20.1,71,5.2,12.1,10.6,24.5,15.2,39.2,6.5,20.9,5.1,37.1,3.4,55.8-.8,9-1.6,18.4-1.6,29,0,65.4,6.5,129.6,20.5,201.8,4.1,21.1,6.1,40.8,7.9,58.2,2.2,21.2,4,38.8,8.6,52v-3.2c-3.9-12.8-5.6-29.3-7.6-48.9-1.8-17.4-3.8-37.2-7.9-58.3-14-72.2-20.5-136.3-20.5-201.6,0-10.6,.8-19.9,1.6-28.9,1.7-18.8,3.1-35.1-3.4-56.2-4.6-14.7-10-27.2-15.2-39.3-9.3-21.5-18.2-41.9-20-70.7-2.6-40.6-3.2-117.1,22.2-174,12.3-27.6,31-50.2,50.8-69.2v-1.4c-20.2,19.3-39.3,42.2-51.8,70.3Z"/><path class="b" d="M3554,331.9c-24.2,32.8-29.7,88.5-33.8,129.2-.4,4.1-.8,8-1.2,11.8-.3,3.3-.7,6.4-1,9.4-3.6,33.6-5.7,53.8-1.2,91,2.4,19.4,9.6,36.7,16.6,53.4,6,14.4,12.3,29.2,15.2,45.1,3.1,16.8,2.8,34.5,2.5,51.6-.2,15.3-.5,31.2,1.6,46.8,2.3,17.3,3,34.7,3.6,51.5,.6,16.9,1.2,34.3,3.6,51.3,1.7,12,4.7,25,7.8,38.8,5.1,22.1,10.4,45,10.3,65.1-.1,40.1,2.6,82.9,21.9,104v-1.5c-18.4-21.1-21-63.1-20.9-102.5,.1-20.2-5.2-43.1-10.3-65.3-3.2-13.8-6.2-26.8-7.8-38.7-2.4-17-3-34.4-3.6-51.2s-1.2-34.2-3.6-51.6c-2.1-15.5-1.8-31.3-1.6-46.6,.3-17.2,.6-34.9-2.5-51.8-2.9-16-9.2-30.9-15.3-45.4-7-16.7-14.2-33.9-16.6-53.1-4.5-37.1-2.4-57.3,1.2-90.8,.3-3,.7-6.2,1-9.4,.4-3.8,.8-7.7,1.2-11.8,4-40.6,9.6-96.2,33.6-128.7,14.9-20.1,28.4-35.1,45.2-49.5v-1.3c-17.1,14.5-30.8,29.7-45.9,50.2Z"/><path class="b" d="M3546.5,308.6c-21.8,30.3-31.9,58.4-30.8,85.8,.9,23.6-.6,40.7-2.1,57.2-.6,6.4-1.2,12.9-1.6,19.7-.7,10.6-1.8,20.6-2.9,30.2-2,17.5-3.8,34.1-3,53,1.3,30.9,8.1,58.7,15.3,88.2,1.7,6.8,3.4,13.8,5,20.9,4.4,19.2,5.4,35.6,6.5,53,.6,10.3,1.3,20.9,2.6,32.9,.5,4.3,1,8.3,1.4,12.3,3.2,27.5,5.8,49.2,5.3,79.4-.4,23.9,4.5,44,9.6,65.2,2.8,11.6,5.7,23.5,7.7,36.3,2.3,14.4,2.1,31.1,1.8,48.8-.3,27-.7,55,8,76.8,6.1,15.3,16.2,26,30.5,32.4v-1.1c-13.9-6.3-23.6-16.8-29.5-31.7-8.6-21.7-8.3-49.5-7.9-76.5,.2-17.7,.4-34.5-1.8-49-2-12.8-4.9-24.7-7.7-36.3-5.1-21.2-10-41.1-9.6-64.9,.5-30.3-2.1-52-5.3-79.5-.5-4-1-8.1-1.4-12.3-1.4-11.9-2-22.6-2.6-32.8-1.1-17.4-2.1-33.9-6.5-53.2-1.6-7.1-3.3-14.1-5-20.9-7.1-29.4-13.9-57.2-15.2-88-.8-18.9,1-35.4,3-52.9,1.1-9.6,2.2-19.6,2.9-30.2,.4-6.8,1-13.3,1.6-19.7,1.5-16.5,3-33.6,2.1-57.3-1.1-27.2,8.9-55,30.6-85.1,17.7-24.6,36.1-39.8,52.7-51.4v-1.2c-16.9,11.6-35.7,27-53.7,51.9Z"/><path class="b" d="M3089.7,1067.4c1.3-55.5,2.6-108,5.2-160,4.3-85.3-11.2-133.9-45.4-204.5-24.7-51-29.6-94.9-17-151.6,5.9-26.7,6.4-50.3,6.9-75.3,.3-13.2,.5-26.8,1.6-41.4,5.3-71.1,24.4-119.6,46.5-175.8,8-20.4,16.3-41.5,24.7-65.3,13.4-38,50.5-120.7,71.7-156.6,7-11.8,13.3-24.1,19.1-36.6h-1.1c-5.8,12.3-12,24.4-18.9,36.1-21.2,35.9-58.4,118.7-71.8,156.7-8.4,23.8-16.7,44.9-24.7,65.3-22.2,56.2-41.3,104.8-46.6,176.1-1.1,14.7-1.4,28.3-1.6,41.5-.5,25-1,48.6-6.9,75.1-12.7,56.9-7.7,101,17.1,152.2,34.1,70.5,49.6,119,45.3,204-2.6,52.1-3.9,104.5-5.2,160l-.2,8.1c-.4,16.5-.8,33.2-.9,49.8h1c.1-16.6,.5-33.3,.9-49.8l.3-8Z"/><path class="b" d="M3106.7,962.9c2.8-47.3,5.7-96.3,4.5-144.5-.9-36.8-11-65.5-21.8-95.8-15.7-44.3-31.9-90.1-18.1-164.6,6.7-36.4,7-58.9,5.1-98.5-2.5-50.3,10.2-96.2,23.5-144.9,2.9-10.5,5.8-21.3,8.6-32,18.8-72.7,47.8-133.4,78.5-197.7,12.7-26.6,25.9-54.1,38.3-82.7l.8-1.9h-1.1l-.7,1.5c-12.4,28.6-25.6,56-38.3,82.6-30.8,64.3-59.8,125-78.6,197.8-2.8,10.8-5.7,21.6-8.6,32-13.4,48.8-26,94.8-23.6,145.2,1.9,39.5,1.7,61.9-5,98.3-13.8,74.8,2.4,120.7,18.1,165.1,10.7,30.2,20.8,58.8,21.7,95.5,1.2,48.1-1.7,97.1-4.5,144.4-3.1,53.2-6.4,108.1-3.9,162.4h1c-2.2-54.1,1-109,4.1-162.2Z"/><path class="b" d="M3133.3,1042.9c1.7-29.8,4.3-57.9,6.8-85.1,8.6-92.1,16-171.6-15.1-277.2-11.2-37.9-5.3-74.4,1.5-116.7,1.8-11,3.6-22.5,5.2-34.4,3-22.3,3.3-50.1,3.6-77,.2-25.7,.5-50,3-69,17.3-130,51.7-219.7,101.5-322.2,9.8-20.1,19-40.6,27.9-61h-1.1c-8.8,20.3-18,40.6-27.7,60.6-49.9,102.6-84.3,192.4-101.6,322.5-2.5,19-2.8,43.3-3,69.1-.3,26.8-.5,54.6-3.5,76.8-1.6,12-3.5,23.4-5.2,34.4-6.8,42.4-12.7,79-1.4,117.1,31.1,105.4,23.7,184.9,15.1,276.9-2.5,27.2-5.2,55.3-6.8,85.1-1.6,28.3-.8,55.7,1.5,82.5h1c-2.5-26.8-3.2-54.1-1.7-82.4Z"/><path class="b" d="M3158.6,902.9c1.5-13.9,3.1-28.2,4.5-42.5,6.2-60.5-4.6-106.8-15.1-151.6-10.6-45.4-20.7-88.3-9-138.4,10-42.6,12.5-84.1,15.2-128,1-15.9,2-32.3,3.4-48.8,3.6-43.3,11.7-93,23.3-143.5,13.8-60.1,41.7-115.4,68.8-169,13.3-26.3,26.9-53.3,38.9-80.9h-1.1c-11.9,27.4-25.5,54.3-38.7,80.5-27.1,53.6-55,109-68.8,169.2-11.6,50.6-19.7,100.2-23.3,143.6-1.4,16.5-2.4,32.9-3.4,48.8-2.7,43.8-5.2,85.3-15.2,127.8-11.8,50.3-1.7,93.3,9,138.8,10.5,44.7,21.3,91,15.1,151.3-1.5,14.2-3,28.6-4.5,42.4-8.3,75.8-16.1,148-10.1,222.5h1c-6.2-74.3,1.7-146.5,10-222.2Z"/><path class="b" d="M3182.8,960.2c1.4-19.3,3.8-39.4,6.2-58.8,4.3-34.8,8.7-70.8,7.3-105.3-1.1-29-8.6-57.2-15.8-84.5-6-22.6-12.1-46-14.6-69.7-2.7-25.3,1.5-50.7,5.6-75.3,3.1-18.9,6.4-38.4,6.5-58,.2-26.9,4.1-53.8,7.9-79.8,2.8-19,5.6-38.7,7.1-58.6,5.8-77.2,19.8-177.3,77.5-265.8,5.3-8.1,10.2-15.2,15-22,14.3-20.5,25.6-36.7,34.7-64.3,2-6,4-12,6-17.8h-1.1c-2,5.8-3.9,11.6-5.9,17.5-9.1,27.4-20.3,43.6-34.6,64-4.8,6.8-9.7,13.9-15,22-57.8,88.7-71.9,188.9-77.7,266.3-1.5,19.9-4.3,39.5-7.1,58.6-3.8,26.1-7.7,53-7.9,80-.2,19.5-3.4,39-6.5,57.9-4.1,24.6-8.3,50.1-5.6,75.5,2.5,23.7,8.7,47.2,14.7,69.8,7.2,27.2,14.6,55.4,15.7,84.3,1.3,34.3-3.1,70.3-7.3,105.1-2.4,19.4-4.8,39.5-6.2,58.8-3.9,54.6-7,110.7-4.4,165.2h1c-2.5-54.4,.6-110.5,4.5-165.1Z"/><path class="b" d="M3171,924.3c4.1-40.6,8.3-82.6,9.7-125,1-30.8-7.9-61.3-16.6-90.7-8.4-28.5-17-58-16.7-87.9,.2-16.5,4.3-32.1,8.4-47.2,3.8-14.1,7.6-28.6,8.3-43.9,.5-11.4-.1-21.6-.7-31.5-.9-15.2-1.8-29.5,1.2-46.6,4.6-26.5,8.3-52.8,12-78.2,12.9-90.7,25.1-176.3,73.8-261.2,18.8-32.8,35.8-71.1,53.5-111.7h-1.1c-17.6,40.5-34.6,78.6-53.3,111.2-48.8,85-61,170.7-73.9,261.5-3.6,25.4-7.3,51.7-12,78.2-3,17.2-2.1,31.6-1.2,46.8,.6,9.9,1.2,20.1,.7,31.4-.7,15.2-4.5,29.7-8.3,43.7-4,15.1-8.2,30.8-8.4,47.5-.3,30,8.3,59.6,16.7,88.2,8.6,29.4,17.5,59.8,16.5,90.4-1.4,42.4-5.6,84.4-9.7,124.9-6.9,68.4-13.4,133.3-7.7,201.1h1c-5.5-67.7,1-132.6,7.8-201Z"/><path class="b" d="M3231.1,1026.2c1.9-27.7,6.6-57.1,11.1-85.4,5.6-34.7,11.3-70.6,12.1-104.6,.9-37.6-8.1-70.3-17.5-105-4.4-15.9-8.9-32.4-12.4-49.6-7.3-35.3-4.2-73.3-1.2-110.1,1.5-18.3,3-37.1,3.2-55.2,.3-24.9,3.6-50.1,6.9-74.4,3.2-24.1,6.5-48.9,7.1-74.2,2.2-105,33.2-194.3,92.4-265.3,26.9-32.3,39.5-66.2,52.6-102.2h-1.1c-13.1,35.7-25.6,69.5-52.3,101.5-59.3,71.2-90.4,160.7-92.6,265.9-.5,25.2-3.8,50.1-7.1,74.1-3.3,24.4-6.6,49.6-6.9,74.5-.2,18-1.7,36.9-3.2,55.1-3,36.8-6.1,74.9,1.2,110.4,3.5,17.2,8,33.7,12.4,49.6,9.5,34.6,18.4,67.2,17.5,104.7-.8,33.9-6.6,69.7-12.1,104.4-4.5,28.4-9.2,57.7-11.1,85.5-2.4,34.9-2.8,67.6-1.2,99.2h1.2c-1.6-30.9-1.4-63.7,1-98.9Z"/><path class="b" d="M3211.8,1037c5.1-56.1,10.7-114.5,19.7-157.7,14.5-69.9-1.5-118.4-17.1-165.3-11-33.1-21.3-64.3-19.7-100.6,.6-13.9,4.3-27.7,7.8-41.1,2.4-9.2,4.7-17.8,6-26.4,2.2-14,1.7-26.9,1.1-39.4-.4-10.7-.9-21.9,.4-33.6,1.3-11.7,3.8-23.9,6.4-36.7,4-19.5,8.1-39.7,8.3-60,.7-56.7,3.2-108.4,27.7-165.7,32.2-75.3,57.1-104,73.6-123,12-13.8,19.9-22.9,24.1-40.9,3.6-15.4,8-30.9,13.1-46.3h-1.1c-5,15.3-9.4,30.7-13,46-4.2,17.8-12,26.8-23.9,40.5-16.5,19-41.6,47.8-73.8,123.3-24.5,57.5-27.1,109.2-27.8,166-.2,20.2-4.3,40.3-8.3,59.8-2.6,12.9-5.1,25.1-6.4,36.8-1.3,11.8-.8,23-.4,33.7,.5,12.4,1,25.3-1.1,39.2-1.3,8.5-3.6,17.2-6,26.3-3.5,13.5-7.2,27.4-7.8,41.3-1.7,36.5,8.7,67.8,19.7,100.9,15.5,46.8,31.5,95.1,17,164.8-9,43.3-14.7,101.7-19.7,157.9-2.6,28.6-3,58.1-1.3,88.4h1.1c-1.5-30.2-1.1-59.8,1.4-88.2Z"/><path class="b" d="M3252.3,1000c2.1-20.5,5.2-41.3,8.3-61.5,4.4-29.3,9-59.6,10.3-89.6,1.7-39.7-7.3-74.5-16.9-111.5-3.9-14.9-7.8-30.3-11.1-46-5.6-27.4-2.2-53.1,1.1-78,2.8-21.2,5.7-43.1,3.1-66-3.3-29.2,1.1-51.2,5.7-74.5,3.8-19.1,7.8-38.8,7.2-63.1-2.2-102-.2-169.2,46-241.9,12.8-20.2,30.3-46.2,52.4-68.1,25.5-25.4,37.1-62.9,48.2-99.1,.1-.2,.1-.4,.2-.6h-1c0,.1-.1,.2-.1,.3-11.1,36.1-22.6,73.4-48,98.7-22.1,22-39.7,48-52.5,68.3-46.3,72.9-48.3,140.2-46.1,242.4,.5,24.2-3.4,43.8-7.2,62.9-4.7,23.4-9.1,45.5-5.7,74.8,2.6,22.8-.3,44.6-3.1,65.7-3.3,25-6.7,50.8-1.1,78.3,3.2,15.8,7.2,31.2,11.1,46,9.6,36.8,18.6,71.6,16.8,111.2-1.3,29.9-5.9,60.2-10.3,89.5-3.1,20.2-6.2,41-8.3,61.5-4.2,41.8-5.3,84.1-3.5,125.4h1c-1.8-41-.7-83.3,3.5-125.1Z"/><path class="b" d="M3280.9,923.7c15.5-79.3,4.5-130.7-6.1-180.4-7.8-36.6-15.2-71.1-11.3-114.3,2.3-25.9,.3-50.6-1.5-74.5-.9-11.6-1.9-23.6-2.3-35.6-1.1-28,6.6-39.8,13.3-50.2,4.6-7.1,8.9-13.8,9.9-24.5,1.5-16.9-.6-26.7-3.2-39-3.8-17.7-8.6-39.8-5-94.8,3.4-52.3,29-112,70.2-163.7,7.4-9.3,14.4-17,21.2-24.5,14.7-16.3,27.5-30.3,37.7-53.5,7.1-16.1,11.9-33.8,16.9-52.6,1.4-5.3,2.8-10.6,4.3-15.9h-1c-1.5,5.2-2.9,10.5-4.3,15.6-5,18.7-9.8,36.3-16.9,52.4-10.1,23-22.8,37-37.5,53.2-6.8,7.5-13.8,15.2-21.2,24.5-41.3,51.9-67,111.8-70.4,164.3-3.6,55.2,1.2,77.3,5,95.1,2.6,12.2,4.7,21.9,3.2,38.7-1,10.5-5.2,17.1-9.7,24.1-6.8,10.5-14.5,22.5-13.5,50.8,.5,12.1,1.4,24.1,2.3,35.7,1.9,23.8,3.9,48.5,1.5,74.3-3.9,43.4,3.5,78,11.4,114.6,10.6,49.6,21.6,100.9,6.1,180-13.4,68.7-18.9,137-16.6,201.8h1c-2.4-64.7,3.1-132.9,16.5-201.6Z"/><path class="b" d="M3319,901.9l.4-3.5c6.1-50.7-1.6-100.6-9-148.8-6.6-42.7-13.4-86.8-10.6-131.5,1.1-17.6-1-34.5-3.1-51-1.9-15-3.8-30.4-3.2-46.1,.4-10.7,5.7-21.7,10.8-32.4,4.1-8.5,7.9-16.5,9-23.8,3.2-21.3-.6-39-4.7-57.7-3.4-15.7-6.9-31.9-6.3-51.1,1.4-48.5,7.6-119,45.2-170.6,23.8-32.7,44.2-46.5,60.6-57.6,14-9.5,25.1-17,33.8-32.4,7.2-12.8,6.2-28.9,5.3-44.5-.7-10.8-1.3-21,.6-30.2,1.4-6.9,3.7-13.7,6.5-20.6h-1.1c-2.8,6.8-5,13.6-6.4,20.4-1.9,9.3-1.3,20.1-.6,30.5,1,15.4,1.9,31.4-5.1,43.9-8.6,15.2-19.6,22.6-33.5,32-16.5,11.1-36.9,25-60.8,57.8-37.7,51.9-44,122.5-45.4,171.2-.6,19.3,3,35.6,6.4,51.3,4,18.6,7.8,36.3,4.7,57.4-1.1,7.1-4.9,15.1-8.9,23.5-5.1,10.8-10.5,21.9-10.9,32.8-.6,15.8,1.4,31.3,3.3,46.3,2.1,16.4,4.2,33.3,3.1,50.8-2.8,44.7,4,88.9,10.6,131.7,7.4,48.1,15.1,97.9,9,148.5l-.4,3.5c-9.5,78.3-18,148.9-16.2,223.5h1c-2.1-74.5,6.4-145.1,15.9-223.3Z"/><path class="b" d="M3334.1,947.2c1.7-13.4,3.5-27.3,5.2-41.4,5.6-46-3.6-92.7-12.4-137.8-8.2-42.1-16.8-85.7-13.2-128.5,1.5-18.7,2.5-38.8,3.4-58.2,1.7-36,3.4-73.3,9.1-106.1,4.6-27.1,.6-50-3.8-74.3-3.6-20.4-7.4-41.6-5.6-65.7,4.9-66.5,22.5-117.4,55.4-160.1,10.1-13.1,26.9-24.8,43.1-36.1,21.2-14.8,41.3-28.8,47.9-45.9,4.8-12.3,5.2-27,5.7-42.6,.4-14.7,.9-29.9,5.3-43.1,.8-2.4,1.6-4.8,2.5-7.2h-1.1c-.8,2.3-1.6,4.6-2.4,6.9-4.4,13.4-4.9,28.6-5.3,43.4-.5,15.5-.9,30.2-5.6,42.3-6.5,16.8-26.5,30.7-47.6,45.4-16.3,11.3-33.1,23.1-43.3,36.3-33,42.9-50.7,93.9-55.6,160.6-1.8,24.3,2,45.5,5.7,66,4.3,24.2,8.4,47,3.8,73.9-5.6,32.9-7.4,70.2-9.1,106.2-.9,19.4-1.8,39.5-3.4,58.2-3.5,42.9,5,86.6,13.3,128.8,8.8,45,17.9,91.6,12.4,137.5-1.7,14.1-3.5,27.9-5.2,41.4-7.9,62-15,117.8-14.3,178.2h1c-.9-60.3,6.2-116.2,14.1-178.1Z"/><path class="b" d="M3348.6,990.5c2.8-24.1,5.8-49.1,7.4-74.4,2.5-39.1,2.9-95.1-9-139.8-15.9-60.1-15.2-99-14.4-144.1,.3-16.5,.6-33.5,0-52.5-.6-22.6,2.1-44.9,4.7-66.4,3.2-26.1,6.5-53.2,3.5-80.3-1.1-9.7-2.3-19.4-3.5-28.9-7.3-58.4-14.3-113.5,13.3-168.9,32-64.3,62.9-83.3,87.8-98.6,11.2-6.9,20.9-12.8,28.7-21.7,14.7-16.7,14-24.2,12.7-36.6-.7-6.7-1.5-15.1-.1-27.4,2.2-18.9,6.9-35.3,13.1-50.7h-1.1c-6.2,15.4-10.8,31.8-13,50.6-1.4,12.4-.6,20.8,.1,27.6,1.2,12.6,1.9,19.5-12.5,35.8-7.8,8.8-17.4,14.7-28.5,21.6-25,15.3-56,34.4-88.2,99-27.7,55.6-20.7,110.9-13.4,169.4,1.2,9.4,2.4,19.2,3.5,28.9,2.9,27-.3,53.9-3.5,80-2.6,21.6-5.3,43.8-4.7,66.5,.5,18.9,.2,36,0,52.4-.8,45.2-1.5,84.2,14.5,144.4,11.8,44.6,11.4,100.5,8.9,139.5-1.6,25.3-4.5,50.3-7.4,74.4-4.9,41.4-9.9,84.2-8,129,.1,2,.2,4,.3,5.9h1c-.1-2-.2-4-.3-6-1.8-44.6,3.3-87.4,8.1-128.7Z"/><path class="b" d="M3367,998.6c3.8-37.8,7.8-77,7.9-117.9,.1-33.1-6-62.6-12.5-93.8-2.8-13.3-5.6-27.1-8-41.2-10.8-65-14.3-128.9-10.1-185,1.5-20.5,4.1-37.8,6.7-54.5,5-33,9.3-61.5,3.2-102-5.5-36.9-11.2-107.3,13.2-164.7,15.4-36.4,43.4-68.7,85.6-98.7,10.8-7.7,18.6-10.8,24.9-13.3,7.7-3.1,12.8-5.1,17.5-13.1,5.7-9.6,4.5-28.7,3.4-47.1-.8-14-1.6-27.1,.4-36,2.3-10.1,5.4-20.4,9.3-30.9h-1.1c-3.8,10.4-6.9,20.6-9.2,30.6-2,9-1.2,22.3-.4,36.3,1.1,18.3,2.2,37.2-3.3,46.6-4.6,7.7-9.5,9.7-17,12.7-6.4,2.5-14.3,5.7-25.1,13.5-42.3,30.1-70.4,62.6-85.9,99.1-24.4,57.6-18.8,128.3-13.2,165.2,6.1,40.4,1.8,68.8-3.2,101.7-2.5,16.7-5.1,34-6.7,54.6-4.2,56.2-.7,120.2,10.1,185.3,2.4,14.1,5.2,27.9,8,41.2,6.5,31.1,12.6,60.6,12.5,93.6-.2,40.9-4.1,80-7.9,117.8-4.3,42.7-8.5,83.9-7.6,126.8h1c-1-43,3.2-84.2,7.5-126.8Z"/><path class="b" d="M3406,957.3c1.9-19.8,3.9-40.4,5.6-62.4,2.4-31-3.3-58-9.4-86.5-2.1-9.7-4.2-19.7-6-30.1-8-45.1-18.5-111.9-17.1-172.4,.6-23.3,2.8-45.5,4.9-67,3.5-35.3,6.7-68.7,3.2-105.2-5.3-55.6-11.4-118.6,12.2-178.7,18.1-46.1,49.9-74,92-101.6,3.4-2.2,7.5-4.5,11.9-6.9,10.5-5.8,22.5-12.3,28.2-20.8,6.5-9.7,5.1-28.8,3.8-47.3-1-13.7-1.9-26.7,.2-35.6,3.3-13.8,8-28.1,14.1-42.4h-1.1c-6,14.2-10.7,28.4-14,42.1-2.2,9.1-1.2,22.1-.2,35.9,1.3,18.3,2.7,37.3-3.6,46.7-5.6,8.3-17.4,14.7-27.8,20.4-4.4,2.4-8.5,4.7-12,6.9-42.3,27.8-74.2,55.7-92.4,102.1-23.7,60.3-17.6,123.4-12.2,179.1,3.5,36.4,.2,69.8-3.2,105.1-2.1,21.5-4.3,43.8-4.9,67.1-1.5,60.5,9,127.5,17.1,172.6,1.9,10.4,4,20.4,6.1,30.1,6.1,28.5,11.8,55.4,9.4,86.3-1.7,22.1-3.7,42.6-5.6,62.4-5.8,60.3-10.7,111-5.8,168.1h1c-5-57.1-.2-107.8,5.6-168Z"/><path class="b" d="M3415.5,1118c-5.8-49.4-1.1-87.6,3.9-128,3.9-31.1,7.8-63.2,6.5-100.8-1.3-38.3-7.7-72.9-14.4-109.7-9.6-52.6-20.6-112.1-17.9-193.8,.7-21.8,3.7-42.2,6.7-62,4.8-32.3,9.3-62.9,4-97-11.4-73.3-6-132.1,16.5-179.7,17.3-36.5,43.2-56.8,70.8-78.3,9.6-7.5,19.4-15.2,29.3-23.8,4.9-4.3,11-6.5,17-8.7,8.2-3,16-5.8,19.3-13.7,1.9-4.5,.7-10.5-1-18.7-2.4-11.5-5.7-27.3-2.9-50.5,2.3-19,7.2-36.7,13.8-53.1h-1.1c-6.6,16.3-11.5,34-13.7,52.9-2.8,23.3,.5,39.2,3,50.8,1.7,8,2.9,13.8,1.1,18.1-3.1,7.4-10.7,10.2-18.7,13.1-6,2.2-12.2,4.5-17.3,8.9-9.8,8.6-19.7,16.3-29.2,23.8-27.6,21.6-53.7,41.9-71,78.6-22.6,47.8-28,106.7-16.6,180.3,5.3,34,.8,64.5-4,96.7-2.9,19.8-6,40.3-6.7,62.1-2.6,81.8,8.3,141.4,18,194,6.7,36.7,13.1,71.3,14.4,109.5,1.3,37.5-2.7,69.6-6.5,100.6-5,40.5-9.8,78.7-3.9,128.3l.7,5.8c.1,.5,.1,.9,.2,1.4h1c-.1-.5-.1-1-.2-1.5l-1.1-5.6Z"/><path class="b" d="M3439.3,943.9c2.9-28.9,0-54.6-3-81.8-1.2-10.7-2.4-21.7-3.4-33.4-2.6-32.8-7.7-65-12.6-96.1-10.2-64.5-19.8-125.5-9.5-191.6,1.5-9.6,4.8-19.4,8-28.8,3.8-11.1,7.7-22.6,8.6-33.9,1.4-18-2.8-36.3-6.9-53.9-2.9-12.5-5.9-25.5-6.8-38.2-2.7-36.4-1.4-105.8,36.9-162.1,17-25.1,31.5-35.3,49.8-48.3,8.3-5.9,17-12,26.9-20.3,6.4-5.3,13.2-7.7,19.7-10,9.6-3.4,18.7-6.6,24.1-19,3.4-7.8,1.5-24.8-.3-41.2-1.4-12.6-2.7-24.6-1.7-31.8,3-20.4,9-37.4,17.4-53.2h-1.1c-8.3,15.8-14.2,32.8-17.2,53.1-1.1,7.3,.3,19.3,1.7,32,1.8,16.3,3.7,33.2,.4,40.7-5.2,12-13.7,14.9-23.5,18.4-6.6,2.3-13.5,4.7-20,10.2-9.9,8.2-18.5,14.3-26.9,20.2-17.7,12.5-32.9,23.3-50.1,48.6-38.5,56.6-39.7,126.3-37.1,162.8,.9,12.7,3.9,25.7,6.9,38.3,4.1,17.6,8.3,35.8,6.9,53.6-.9,11.1-4.8,22.6-8.5,33.6-3.2,9.5-6.6,19.3-8.1,29-10.3,66.3-.7,127.3,9.5,191.9,4.9,31.1,10,63.3,12.6,96.1,.9,11.6,2.2,22.7,3.4,33.4,3.1,27.2,5.9,52.8,3,81.6-5.8,57.6-10,109.9-1.5,167.8,.6,3.9,1.2,8.5,1.9,13.7h1c-.7-5.2-1.3-9.9-1.9-13.9-8.6-57.7-4.4-110,1.4-167.5Z"/><path class="b" d="M3454.5,959c4.3-34.3,1.2-59.3-2.7-90.9-.8-6.2-1.6-12.6-2.4-19.4-3.1-27.1-7-54-10.8-80.1-8.3-57.2-16.1-111.2-16.9-168.8-.4-28.1,5-51.5,10.3-74.1,6.5-28,12.6-54.5,8.2-88.6-.4-2.9-.8-5.8-1.2-8.8-6.5-48.8-13.8-104.1-.5-149.9,9.9-34.2,31.9-64.1,69-94,17.2-13.9,32-22.7,48.1-28.7,28.6-10.6,31.4-15.3,30-49.6l-.2-4.8c-1.6-41.6-2.7-69.2,14.4-101h-1c-17.1,32.3-16,60.7-14.4,101.1l.2,4.8c1.3,34-1.2,38.1-29.4,48.6-16.2,6-31.1,14.9-48.4,28.9-37.3,30.1-59.3,60.1-69.3,94.5-13.3,45.9-6,101.4,.5,150.3,.4,3,.8,5.9,1.2,8.8,4.4,34-1.7,60.3-8.2,88.3-5.3,22.6-10.7,46-10.3,74.3,.8,57.7,8.6,111.7,16.9,168.9,3.8,26.1,7.7,53,10.8,80.1,.8,6.8,1.6,13.2,2.4,19.4,3.9,31.5,7,56.4,2.7,90.6-7.3,58.1-5.5,114,5.5,166.4h1c-11-52.4-12.8-108.3-5.5-166.3Z"/><path class="b" d="M3490.8,994.2c0-15.9,.1-32.4-.4-48.7-.6-18.8-3.8-36.3-6.9-53.2-2.7-15-5.6-30.5-6.6-47.1-2.3-36.4-7.1-72.4-11.8-107.3-6-44.5-12.1-90.5-13-137.3-.4-24.1,2.7-47.2,5.7-69.5,3.5-25.7,7.1-52.3,5-79.7-.7-9.4-1.6-18.9-2.4-28-4-43-7.8-83.7,6-126.1,22.2-68.3,74.5-97,112.7-117.9,7.8-4.3,14.9-8.1,20.8-11.9v-1.2c-6,3.8-13.2,7.8-21.3,12.2-38.4,21-90.9,49.7-113.2,118.4-13.8,42.6-10,83.3-6,126.5,.8,9.1,1.7,18.6,2.4,28,2,27.3-1.6,53.9-5,79.5-3,22.4-6.2,45.6-5.7,69.7,.8,46.9,7,92.9,13,137.5,4.7,34.9,9.5,70.9,11.8,107.3,1,16.6,3.9,32.1,6.6,47.2,3.1,16.9,6.3,34.3,6.8,53,.5,16.2,.5,32.7,.4,48.6-.1,37.6-.2,76.5,7,114.8,.4,2.4,1.6,8.2,3.5,16.3h1c-2-8.2-3.1-14.1-3.6-16.5-7-38.1-6.9-77-6.8-114.6Z"/><path class="b" d="M3503.8,973.1c.1-38.4,.2-78-16.3-158.8-16.7-81.5-26.1-177.2-24.6-250,.4-19.7,4.4-37.2,8.3-54.1,5.2-22.9,10.2-44.6,6.9-71.1-.6-4.8-1.2-9.6-1.9-14.4-5.8-43.4-11.7-88.2,8.7-127.8,31.2-60.3,69.3-82.1,99.9-99.7,5.4-3.1,10.5-6,15.3-9v-1.2c-4.9,3.1-10.2,6.1-15.8,9.3-30.7,17.6-69,39.6-100.3,100.1-20.6,39.9-14.6,84.9-8.8,128.4,.6,4.8,1.3,9.6,1.9,14.4,3.3,26.3-1.6,47.9-6.8,70.7-3.9,17-7.9,34.5-8.3,54.3-1.5,72.8,7.9,168.7,24.6,250.2,16.5,80.6,16.4,120.2,16.3,158.6-.1,25-.1,48.7,4.2,82.7,1.7,13.5,5.9,40.5,14,69.5h1c-8.1-29-12.3-56.1-14-69.6-4.5-33.8-4.4-57.5-4.3-82.5Z"/><path class="b" d="M3521.8,993.4c.9-76.6-14.7-156.1-29.8-233-1.1-5.8-2.3-11.5-3.4-17.2-12.5-64.3-24-156.3-7.7-228.7,9.1-40.3,6.3-71.6,3.6-101.8-2.5-28.2-4.9-54.9,3.5-85,5.2-18.7,17.6-39.5,38-63.5,24.5-28.8,49.1-44.2,68.9-56.5,1.7-1.1,3.4-2.1,5.1-3.2v-1.2c-1.8,1.2-3.7,2.3-5.6,3.5-19.8,12.4-44.5,27.8-69.1,56.7-20.5,24.1-33,45-38.2,63.8-8.4,30.3-6,57-3.5,85.3,2.7,30.2,5.5,61.4-3.6,101.5-16.4,72.6-4.9,164.7,7.7,229.1,1.1,5.7,2.2,11.5,3.4,17.2,15.1,76.8,30.6,156.3,29.8,232.8-.3,24.3,2.6,63.2,11.4,99.4,2.9,11.8,6.2,22.7,10,32.6h1.1c-3.8-9.9-7.2-20.9-10.1-32.8-8.9-36-11.7-74.8-11.5-99Z"/><path class="b" d="M3536.1,990.5c3.4-65-10.3-138.5-24.9-216.4-17.7-95-36.1-193.1-20.2-273.7,7.6-38.8,5.5-68.7,3.6-95.1-2.8-40-5.1-71.6,28.3-113.3,34.5-43,51.4-53.5,69.4-64.5,2.5-1.5,5-3.1,7.7-4.8v-1.2c-2.8,1.8-5.5,3.5-8.2,5.1-18,11.1-35,21.6-69.6,64.8-33.7,42-31.4,73.7-28.6,114,1.9,26.3,4,56.2-3.6,94.9-15.9,80.8,2.5,179.1,20.2,274.1,14.5,77.8,28.2,151.3,24.8,216.2-2.2,42.7-1.5,103.1,30.2,134,.3,.3,.6,.5,.9,.8h1.5c-.6-.5-1.1-1-1.7-1.5-31.4-30.7-32-90.8-29.8-133.4Z"/><path class="b" d="M2730,784.6c-35.7-110.1-63.9-197.1-167.4-269.5-29.5-20.7-51.8-48.8-73.4-76-24.2-30.6-49.3-62.2-84.2-82.4-22.4-13-40.6-16-55.5-9.3-25,11.2-35.7,48.5-42.9,83.4l-.1,.5c-2.9,14.1-8.3,40.5-18.4,51.8-8.5,9.5-21.4,1-33.9-7.3-10.5-7-20.5-13.6-27.4-8.9-15,10.2-20.3,17.3-19.4,26.3,.9,9.2,8.5,20.4,21.1,38.8,3.1,4.5,13.2,6.3,23.8,8.2,11.1,2,22.5,4,26.1,9.2,4.4,6.3,6.9,19,9.1,30.1,1.1,5.8,2.2,11.3,3.4,15,3.2,9.7,7.9,19.7,12.5,29.4,7.5,16,15.3,32.5,17,48.8,3.4,31.7-5.5,63.6-14.1,94.6-8.3,29.9-16.9,60.8-14.7,92,2.2,32.4,7.3,34.2,16.4,37.4,5.9,2.1,13.1,4.7,22.5,16.8,3.6,4.7,7.4,6.7,10.5,8.3,5.5,2.9,8.8,4.6,5.3,18.5-2.1,8.2-22.5,29.1-40.5,47.5-10.7,11-20.9,21.4-25.1,27.1-2,2.7-3.9,5.3-5.8,7.8-19.6,26.4-35.1,47.3-45.3,80.5-2.2,7.3-4.4,14.7-6.4,22.1h1c2-7.3,4.1-14.6,6.3-21.8,10.2-33,25.6-53.9,45.2-80.2,1.9-2.6,3.8-5.2,5.8-7.8,4.2-5.7,14.3-16,25-27,18.1-18.5,38.6-39.5,40.7-48,3.7-14.7,0-16.7-5.8-19.7-3-1.6-6.7-3.6-10.2-8-9.5-12.4-17-15-23-17.2-8.7-3.1-13.5-4.8-15.7-36.6-2.1-31,6.4-61.8,14.7-91.6,8.6-31,17.5-63.1,14.1-94.9-1.8-16.5-9.6-33.1-17.1-49.1-4.5-9.7-9.2-19.6-12.4-29.2-1.2-3.6-2.3-9.1-3.4-14.9-2.2-11.3-4.7-24-9.3-30.5-3.8-5.5-15.5-7.6-26.7-9.6-10-1.8-20.4-3.6-23.2-7.8-12.5-18.3-20-29.3-20.9-38.3-.9-8.5,4.3-15.3,18.9-25.3,6.3-4.3,16,2.1,26.2,8.9,12.8,8.5,26.1,17.3,35.2,7.1,10.3-11.5,15.7-38,18.6-52.2l.1-.5c7.1-34.7,17.7-71.7,42.3-82.7,14.6-6.5,32.4-3.5,54.6,9.3,34.8,20.1,59.8,51.6,83.9,82.1,21.6,27.3,44,55.5,73.6,76.2,103.2,72.3,131.4,159.1,167,269,3.5,10.7,7.1,21.8,10.8,33,32.5,98.3,54.5,198.8,66.9,307.4h1c-12.4-108.7-34.4-209.3-67-307.7-3.3-11.4-6.9-22.4-10.4-33.1Z"/><path class="b" d="M1625,1084.2c11.8-8,24.5-12,36.8-15.8,19.4-6,37.7-11.8,52.3-32.2,31.3-43.9,42.7-96.4,33.1-151.8-8.8-50.6-50.7-84.6-78.4-107.1-2-1.7-4-3.3-5.9-4.8-26.9-22.1-35.7-41.9-46-64.8-5.8-13-12.4-27.7-23-44.6-7.6-12.1-35.8-25.3-83.9-39.2-22-6.4-30.3-20.6-40.8-38.5-8.9-15.2-18.9-32.3-39.8-49-18.7-15-23.2-39.4-28.4-67.6-2.1-11.1-4.2-22.6-7.3-34.3-.8-3.1-1.6-6.2-2.5-9.3-7.2-27.6-14.7-56.2-32.7-75.5-27.7-29.8-81.7-33.1-103.7-33.2h-3.1q-40.8-.1-73.1-20.8l-4.8-3.1c-14.4-9.2-29.8-16.6-44.7-23.7-46.1-22-86-41-65-103.5,22.1-65.8,21.5-112.5-4.8-165.1h-1.1c26.3,52.5,27,99,4.9,164.7-21.3,63.3,18.9,82.5,65.5,104.7,14.8,7.1,30.2,14.4,44.5,23.6l4.8,3.1q32.6,20.9,73.6,21h3.1c21.8,0,75.5,3.3,102.9,32.8,17.8,19.1,25.2,47.6,32.4,75.1,.8,3.1,1.6,6.2,2.5,9.3,3.1,11.7,5.2,23.1,7.3,34.2,5.2,28.4,9.8,53,28.8,68.2,20.7,16.6,30.8,33.7,39.6,48.8,10.6,18.1,19,32.5,41.4,39,47.2,13.7,76,27.1,83.3,38.8,10.6,16.8,17.2,31.5,22.9,44.5,10.3,23,19.1,42.9,46.2,65.2,1.9,1.5,3.9,3.1,5.9,4.8,27.6,22.4,69.3,56.2,78.1,106.4,9.6,55.2-1.8,107.4-32.9,151.1-14.4,20.2-32.5,25.9-51.8,31.8-12.3,3.8-25.1,7.8-37,15.9-14.3,9.7-24.7,24.8-33.1,42h1.1c8.5-16.8,18.8-31.6,32.8-41.1Z"/><path class="b" d="M1663.8,1046.3c52.6-15.7,78.5-56.6,76.9-121.8-1-40.7-1.6-65.3-44.1-108.5-12.5-12.7-25.5-21.6-38-30.2-18.8-12.9-36.5-25.1-51.1-48.6-4.6-7.4-8.3-16-12.3-25.1-6.8-15.7-13.9-31.9-26-42.6-12.3-10.8-24.5-14.1-37.3-17.6-8.7-2.4-17.8-4.8-27.3-9.8-50.7-26.3-91.9-77-116.1-142.6-4.8-13.1-5.2-24.2-5.6-36-.6-18.8-1.4-40.2-20.3-75.5-16.5-30.6-29.2-49.5-67.4-52.4-13.6-1.1-26.2,4.1-38.4,9.2-10,4.1-20.3,8.4-31.4,9.4-49.9,4.5-84.2-21.2-120.4-48.4-22.4-16.8-45.5-34.1-73-44.4-13.5-5-21.7-11.9-25.1-20.9-6.7-18,6.6-42.4,20.6-68.3,12.4-22.8,25.2-46.3,26.8-68.7,2-27.1-16-66.1-36.4-103.3h-1.1c20.4,37.2,38.5,76.3,36.5,103.2-1.6,22.2-14.3,45.6-26.7,68.3-14.2,26.1-27.6,50.7-20.7,69.1,3.5,9.4,11.9,16.4,25.6,21.5,27.4,10.2,50.4,27.5,72.8,44.2,33.6,25.2,65.5,49.1,109.8,49.1,3.7,0,7.5-.2,11.3-.5,11.2-1,21.6-5.3,31.6-9.4,12.7-5.2,24.6-10.1,37.9-9.1,37.6,2.9,50.2,21.5,66.6,51.9,18.9,35.1,19.6,56.3,20.2,75,.4,11.9,.8,23.1,5.7,36.3,24.3,65.9,65.7,116.7,116.6,143.2,9.7,5,18.7,7.5,27.5,9.8,12.7,3.4,24.8,6.7,36.9,17.3,12,10.5,19,26.6,25.8,42.2,4,9.1,7.7,17.7,12.3,25.2,14.6,23.7,32.5,35.9,51.3,48.9,12.5,8.6,25.4,17.5,37.9,30.1,42.2,42.9,42.8,67.3,43.8,107.8,1.6,64.6-24,105.3-76.2,120.8-31.2,9.3-56,29-75.8,60.4-3.9,6.2-7.6,12.7-11,19.5h1.2c18.9-36.2,44.3-66.3,86.1-78.7Z"/><path class="b" d="M941.5,1125.3h2.7c-1-.1-1.9-.1-2.7,0Z"/><path class="b" d="M1646.4,1014.9c34.4-10.8,59-34.3,69.2-66.1,10.7-33.2,4.2-70.1-17.3-98.8-12.5-16.6-32-32.3-51.1-40.8-15.8-7.1-32-18.2-42.3-28.9-8.9-9.3-15.2-19.6-21.9-30.5-7.8-12.8-16-26.1-28.8-38-17.5-16.1-33.6-21-50.7-26.2-19-5.8-38.7-11.7-62.3-33.8-24.6-23-71.1-115.1-83.1-174.2-15-73.9-39-97-91.8-88.2-13.4,2.2-25.3,5-36.8,7.6-40.2,9.3-72,16.6-120.5-13.5-48.9-30.3-95.6-63.8-128.1-91.8-36.4-31.4-26.5-58.7-15.1-90.2,6.6-18.2,14.1-38.8,13.4-62.6-1.2-43.1-31.8-87.3-60-114.3-9-8.6-19-16.5-29.1-24.1h-1.7c10.4,7.8,20.7,15.9,30,24.8,28.1,26.9,58.5,70.8,59.7,113.6,.7,23.6-6.8,44.1-13.3,62.2-11.6,31.9-21.6,59.5,15.4,91.3,32.5,28,79.3,61.5,128.2,91.9,48.9,30.3,80.9,22.9,121.3,13.6,11.5-2.7,23.3-5.4,36.7-7.6,52-8.6,75.7,14.3,90.6,87.5,5.7,27.8,19.2,64.9,37.2,101.6,16.6,34,34.3,62,46.2,73.2,23.8,22.2,43.6,28.2,62.7,34,17,5.1,33,10,50.3,26,12.8,11.8,20.8,25,28.6,37.8,6.7,11,13,21.3,22,30.7,10.4,10.8,26.7,22,42.6,29.1,18.9,8.5,38.3,24,50.7,40.5,21,28,27.6,65.5,17.1,97.9-10.1,31.5-34.5,54.7-68.6,65.4-56.1,17.6-78.2,61.6-96,111.4h1.1c18.1-49.5,40-93.1,95.5-110.5Z"/><path class="b" d="M988.3,1102c-42.4-22.9-90.4-48.8-138.1-55.5-18.1-2.5-60.7-6.9-66.4,7.3-3.2,8,6.5,20.1,28.7,35.9,11.3,8.1,22.9,16.1,34.1,23.8,5.7,3.9,11.3,7.8,17,11.8h1.7c-6.1-4.2-12.2-8.4-18.2-12.6-11.2-7.7-22.8-15.7-34.1-23.8-21.5-15.3-31.3-27.3-28.3-34.7,3.8-9.4,28.2-11.9,65.3-6.7,47.6,6.7,95.5,32.6,137.8,55.4,5.4,2.9,10.7,5.8,15.9,8.6,8,4.3,15.8,8.9,23.6,13.8h1.9c-8.2-5.3-16.5-10.2-25-14.7-5.2-2.8-10.5-5.7-15.9-8.6Z"/><path class="b" d="M1499.6,1071.5c2-16.8,20.8-79.6,37.5-90.2,21.2-13.4,46.1-17.3,70.2-21.1,34.6-5.4,67.3-10.5,73.7-46.2,6-33.2-16-47-43.8-64.5-9.5-6-20.3-12.7-30.9-20.9-7.3-5.6-13.9-13.9-21.4-23.5-10.3-13-22-27.8-39-39.8-15.9-11.2-39.9-13.2-65.2-15.3-36.6-3-74.4-6.1-94-36.7-18.1-28.2-26.5-63.6-34-94.9-3.5-14.7-6.8-28.6-10.8-39.9-12.9-36.6-30.3-59.6-53.2-70.4-39-18.3-90.6,.7-150.2,22.7-10.7,3.9-21.8,8-33.1,12-6,2.1-12,4.6-17.9,7-30.5,12.5-62.1,25.4-103.7-1.9-10.6-7-19.9-30.6-29.9-55.6-6.5-16.5-13.3-33.5-21.1-48.1-25.2-46.7-47.6-67.6-102.3-106.8-2.7-2-5.5-3.8-8.1-5.6-11.7-7.9-21.7-14.7-23.3-25-1.3-8.8,3.7-20.2,15.3-34.8,39.8-49.8,54.1-87.3,44.9-118-8.1-27.3-34.6-48-81-63.3-36.4-12-53.4-22.3-67.2-30.5-14.1-8.5-25.2-15.2-50.1-19.9-24-4.6-48.7,3-68.7,9-21,6.4-37.7,11.4-44,.2-7.4-13.2,5-33.2,17.5-49.2h-5c-12.5,16.5-24,36.7-15.8,51.4,7.9,14,25.9,8.6,48.6,1.7,20.5-6.2,43.7-13.3,66.7-8.9,24.2,4.6,35,11.1,48.8,19.4,13.9,8.3,31.2,18.7,68,30.9,45.1,14.9,70.7,34.7,78.5,60.7,8.7,29.3-5.3,65.6-44.2,114.3-12.6,15.7-17.7,27.8-16.1,37.9,1.8,12,12.6,19.3,25,27.7,2.6,1.8,5.4,3.6,8,5.6,54.1,38.8,76.3,59.4,101.1,105.4,7.8,14.4,14.5,31.3,21,47.7,10.6,26.7,19.8,49.8,31.4,57.5,43.4,28.5,75.9,15.2,107.4,2.3,6.1-2.5,11.8-4.8,17.7-6.9,11.3-4,22.4-8.1,33.1-12,58.8-21.7,109.6-40.5,147.1-22.8,21.9,10.3,38.6,32.5,51.1,68.1,3.9,11,7.2,24.8,10.7,39.5,7.5,31.6,16.1,67.4,34.5,96.1,20.7,32.2,61.2,35.6,97,38.5,24.8,2,48.2,3.9,63.2,14.6,16.6,11.7,28.1,26.2,38.2,39,7.4,9.4,14.4,18.2,22.1,24.1,10.7,8.3,21.6,15.1,31.2,21.1,27.6,17.3,47.6,29.8,42,60.4-6,32.8-35.8,37.5-70.4,42.9-23.4,3.7-49.9,7.8-71.8,21.7-18.9,12-37.6,78.4-39.4,93.1-2.5,21.2-2.9,38-3.2,51.5,0,.9,0,1.9-.1,2.8h4c0-.9,0-1.8,.1-2.7,.5-14.4,.8-30.4,3.3-51.4Z"/><path class="b" d="M1125.3,1013.4c-41.4-22.1-60.3-41.4-97.9-79.8-2.9-3-6-6.1-9.1-9.3-22-22.4-66.3-42.5-121.6-55.3-52.1-12-107.3-16-147.5-10.6-42.1,5.7-83.7,18.9-127.6,32.9-48.7,15.5-99.1,31.6-152.8,37.6-22.5,2.5-45.5-3-69.8-8.9-30.6-7.4-62.2-15.1-96.5-7.5-24.3,5.3-53.1,13.5-60.6,29.3-3,6.2-2.5,13.3,1.3,20.9,6.9,13.9,16,15,25.5,16.3,9.5,1.2,19.3,2.5,30,15.9,14.2,17.7,21.8,33.6,27.8,46.4,11.1,23.5,18.5,39,53.4,43.2,19.5,2.4,36.2-.7,51-3.3,9.6-1.7,17.9-3.2,25.5-3,21.5,.6,36.1,6,49,10.8,7.2,2.7,14.1,5.2,21.3,6.6,16.8,3.1,31.6,2.3,44.8,1.6,12.6-.7,23.4-1.3,33.2,1.6,20,5.8,36.5,14.9,51,22.9,2.3,1.3,4.7,2.6,6.9,3.8h8.6c-4.3-2.2-8.8-4.7-13.6-7.3-14.7-8.1-31.3-17.3-51.8-23.2-10.5-3-21.6-2.4-34.5-1.7-12.9,.7-27.5,1.5-43.8-1.5-6.8-1.3-13.5-3.8-20.6-6.4-13.2-4.9-28.2-10.5-50.3-11.1-8-.2-16.9,1.4-26.3,3.1-14.5,2.6-30.9,5.6-49.8,3.3-32.7-3.9-39.3-17.9-50.2-41-6.1-13-13.8-29.1-28.3-47.2-11.7-14.6-22.8-16.1-32.6-17.3-9.2-1.2-16.5-2.1-22.5-14.1-3.3-6.6-3.7-12.3-1.2-17.4,6.8-14.2,34.5-22,57.8-27.1,33.4-7.4,64.5,.2,94.7,7.5,24.6,6,47.9,11.6,71.2,9,54-6.1,104.6-22.2,153.6-37.8,43.8-14,85.1-27.1,126.9-32.8,80.4-10.8,218.9,16.9,265.8,64.7,3.2,3.2,6.2,6.3,9.1,9.3,37.9,38.7,56.9,58.1,98.9,80.5,64.1,34.2,69.1,59.8,70.7,108.3h4c-.8-23.8-2.5-43.7-12.1-61.1-10.3-18.2-28.5-33.4-61-50.8Z"/><path class="b" d="M1425,1046.4c-1-29.5-2.1-62.9,8.5-91.4,10-26.9,35.3-42.8,55.6-55.6,17.3-10.9,31-19.5,31.2-31.5,.2-9.2-7.9-19.1-25.4-31-32.3-22.1-65.7-20.5-95.1-19.2-29.9,1.4-55.7,2.6-77-18.1-17-16.6-25.2-46.8-33.9-78.8-7.1-26.1-14.4-53-27-73.3-14.5-23.3-34.2-34.4-60.1-34.1-31.4,.4-48.1,18-56.5,32.7-15.4,26.8-15.6,65.5-.6,92,12.4,21.8,25.2,41,37.6,59.5,25.3,37.8,49.2,73.5,64.8,125.6,13.5,45,18.6,86.6,16.1,131.1-.5,9.7-2.9,24-5.7,40.5-1.7,10.1-3.4,20.5-4.9,30.7h4.1c1.5-10.2,3.2-20.5,4.8-30.1,2.8-16.7,5.2-31.1,5.8-41,2.5-44.9-2.6-87-16.2-132.4-15.8-52.6-39.8-88.6-65.3-126.7-12.3-18.4-25.1-37.5-37.4-59.2-14.4-25.4-14.2-62.4,.6-88,7.9-13.8,23.6-30.4,53.1-30.7h1c53.9,0,68.3,53.1,82.2,104.5,8.8,32.6,17.1,63.3,35,80.7,22.5,21.9,50.4,20.6,80,19.3,30.2-1.4,61.4-2.9,92.7,18.5,16.1,11,23.8,20,23.7,27.7-.2,9.8-13.7,18.4-29.3,28.2-20.8,13.1-46.7,29.4-57.3,57.6-10.9,29.2-9.8,63.1-8.8,92.9,1.1,32.7,2.1,61.8-11.9,78.8h5.1c12.5-18.5,11.5-47.2,10.5-79.2Z"/><path class="b" d="M15.7,1116.8c-4.6-3.7-10.2-3.7-15.1-3.6H0v4H.7c4.6,0,9-.1,12.6,2.8,1.8,1.5,3.8,3.3,5.8,5.4h5.5c-3.1-3.3-6.1-6.3-8.9-8.6Z"/><path class="b" d="M1739.4,1057.4c31.4-60.8,57.3-127.7,33.7-204.6-11.3-37-33.9-60.1-57.9-84.5-10.1-10.3-20.6-21-30.3-33-14.8-18.1-23.2-39.3-31.3-59.8-7.5-18.9-15.2-38.5-28-55.5-13.8-18.3-29.3-26.3-45.7-34.7-11.5-5.9-23.4-12-35.3-22.2-14.9-12.8-25.6-29.9-36.8-48-13.8-22.3-28.2-45.3-52.2-64-22.4-17.3-28.4-42.2-34.8-68.6-5.2-21.4-10.5-43.5-25.1-62.5-15.2-19.9-40.8-35.6-65.5-50.8-27.1-16.7-55.2-33.9-69.7-56.6-6.8-10.7-6.9-21-6.9-30.1-.1-10.9-.1-21.2-12.9-27.1-7.7-3.6-15.4,.2-23.5,4.3-10,5-20.3,10.2-31.9,1.7-3.6-2.7-.1-10.3,4.5-19.9,4.3-9.2,9.7-20.7,10.9-33,.9-17.8-6.6-25.2-13.3-31.8-5-5-9.4-9.4-10.2-17.7-.8-8.4,1.6-17.1,3.9-25.5,3-10.9,6-22.1,2.7-33.3h-4.2c0,.1,.1,.2,.1,.3,3.4,10.4,.5,20.9-2.5,32-2.4,8.8-4.9,17.8-4,26.9,.9,9.7,6.2,15,11.4,20.1,6.3,6.3,12.9,12.8,12.1,28.7-1.1,11.4-6.3,22.6-10.5,31.6-5.3,11.3-9.5,20.2-3.2,24.8,13.5,9.9,25.5,3.9,36.1-1.3,7.5-3.8,14.1-7,20-4.3,10.5,4.9,10.5,12.7,10.6,23.5,.1,9.7,.1,20.6,7.6,32.2,15,23.4,43.5,40.9,71,57.8,24.4,15,49.7,30.5,64.5,49.8,14.1,18.4,19.3,40.1,24.4,61,6.5,27,12.7,52.6,36.2,70.8s37.6,40.9,51.3,62.9c11.4,18.4,22.2,35.7,37.6,49,12.2,10.4,24.3,16.7,36,22.7,16,8.2,31.1,16,44.3,33.6,12.5,16.6,20.1,35.9,27.5,54.6,8.2,20.8,16.7,42.2,31.9,60.8,9.9,12.1,20.4,22.8,30.6,33.2,23.6,24.1,45.9,46.8,56.9,82.9,23.1,75.6-2.4,141.6-33.5,201.6-20.2,39.1-32.3,44.6-54.3,54.7-8.4,3.8-17.9,8.1-29.7,15.1h8.1c8.9-4.9,16.4-8.3,23.2-11.4,22.7-10.3,35.2-16,56.1-56.4Z"/><path class="b" d="M1906.4,1028.3c-24.6-22.3-45.8-41.5-61.9-80-26.7-63.5-28.7-93.5-21.7-163.7,2.6-26.4-3.1-49.6-17.4-71-12.7-19-31-34.8-48.7-50.2-22.3-19.4-45.4-39.4-58.7-66.3-6.8-13.8-14-27.8-21-41.4-24.2-47.3-49.3-96.2-65-147.1-7.6-24.6-10.9-50-14.1-74.7-4-30.7-8.1-62.5-20.6-92.4-8-19.2-17.4-37.1-26.5-54.4-15-28.4-29.1-55.3-37.6-87.3-7.4-27.9-16.1-55.5-24.5-82.2l-3.4-11c-.7-2.2-1.3-4.3-1.9-6.3h-4.2c.7,2.4,1.4,4.9,2.2,7.5l3.4,11c8.4,26.6,17,54.2,24.4,82,8.6,32.5,23.5,60.8,37.9,88.2,9.1,17.3,18.5,35.1,26.4,54.1,12.3,29.4,16.4,60.9,20.3,91.4,3.2,24.8,6.6,50.5,14.3,75.3,15.9,51.3,41,100.3,65.3,147.7,6.9,13.6,14.1,27.6,20.9,41.4,13.7,27.6,37,47.9,59.6,67.6,36.2,31.4,70.3,61.1,64.7,117.8-7,71-5,101.3,22,165.6,16.5,39.3,38,58.8,62.9,81.4,11.8,10.7,23.9,21.7,36.8,35.8,14.6,16.1,31.7,37,43.1,58.2h4.5c-11.6-22.2-29.4-44.2-44.6-60.9-12.8-14.3-25.1-25.4-36.9-36.1Z"/><path class="b" d="M3195.9,1100.3c.5-18.2,.9-36.8,1.2-54.8,.6-31.2,1.2-63.5,2.8-95.1,1.1-21.6,4.9-44.2,8.5-66.1,5.9-35.1,11.9-71.5,7.7-106-2.9-23.3-9.9-46.5-16.8-69-7.8-25.6-15.9-52.2-17.7-78.9-1.3-18.7,2.3-32.8,6.5-49.2,1.3-5.3,2.7-10.8,4-16.6,3.9-17.7,3.5-32.8,3.1-48.8-.3-10.2-.5-20.7,.4-32.1,1.3-15.4,4.3-30.2,7.3-44.5,3.7-17.6,7.4-35.8,7.9-55.6,.1-3.1,.2-6.2,.2-9.2,1.3-54.1,2.6-105.3,23.8-154.2,4.3-9.9,8.4-20.2,12.7-31.1,11.8-29.9,24-60.8,41.7-84.9,4.9-6.6,12-12.6,19-18.3,8.1-6.7,16.5-13.7,21.5-22,7.1-11.8,8.6-24.2,10.3-37.4,.9-6.8,1.7-13.8,3.4-20.8,.4-1.8,.9-3.5,1.3-5.3h-4.1c-.4,1.4-.7,2.9-1.1,4.4-1.8,7.2-2.7,14.4-3.5,21.3-1.6,12.7-3.1,24.7-9.7,35.8-4.6,7.7-12.4,14.2-20.7,21-7.1,5.9-14.5,12-19.6,19-18,24.5-30.3,55.6-42.2,85.8-4.3,10.9-8.4,21.1-12.6,31-21.5,49.7-22.9,103.6-24.2,155.7-.1,3.1-.2,6.1-.2,9.2-.5,19.4-4.2,37.5-7.9,54.9-3,14.4-6.1,29.3-7.3,44.9-.9,11.6-.7,22.2-.4,32.5,.4,15.8,.8,30.6-3,47.9-1.3,5.8-2.6,11.2-4,16.5-4.1,16-7.9,31.2-6.6,50.5,1.9,27.2,10,53.9,17.9,79.8,6.8,22.3,13.8,45.4,16.6,68.4,4.2,34-1.8,70-7.6,104.9-3.7,22-7.4,44.7-8.6,66.6-1.6,31.7-2.2,64-2.8,95.2-.3,18-.7,36.5-1.2,54.8-.2,8.3-.3,16.7-.2,25.1h4c-.1-8.7,0-17,.2-25.3Z"/><path class="b" d="M3045.7,1019.8c1.4-38.9,2.8-79.2-1.9-118.1-6-50.1-27.1-76.2-56.3-112.4-2.5-3.1-5.1-6.4-7.8-9.7-52.5-65.6-79.9-167.5-75.3-279.4,2.7-65.5,30.3-110.1,59.4-157.2,14.2-23,28.9-46.8,41.3-73.9,14.7-32.1,24.7-66.6,34.4-99.9,7.5-25.9,15.4-52.8,25.3-78.3,12.8-32.8,29.5-61.4,47.5-90.6h-4.7c-17.6,28.6-33.9,56.8-46.6,89.1-10,25.7-17.9,52.6-25.4,78.6-9.7,33.2-19.6,67.5-34.2,99.4-12.3,26.9-27,50.6-41.1,73.4-29.5,47.6-57.3,92.6-60,159.2-2.1,51.6,2.6,102.9,13.7,148.4,12.9,52.9,33.9,97.8,62.5,133.6,2.7,3.3,5.3,6.5,7.8,9.7,28.8,35.7,49.6,61.4,55.5,110.4,4.7,38.6,3.2,78.7,1.9,117.5-.7,20.7-1.5,42.2-1.3,63,.1,14.2,.5,28.4,1.1,42.6h4c-.6-14.2-1-28.5-1.1-42.6-.2-20.7,.6-42.1,1.3-62.8Z"/><path class="b" d="M2092.5,1023.1c7.1-20.2,13.7-39.3,7.8-57.2-3.1-9.4-12.7-12.2-22.1-15-6.1-1.8-11.8-3.5-15.4-6.8-6.3-5.8-11.1-13.2-14.9-19.1-3.8-6-6.6-10.3-9.8-11.6-4.5-1.8-9.1-.3-13.5,1.2-6.6,2.2-12.8,4.3-20-3.3-2-2.1-1.8-7.8-1.5-14.3,.3-8,.6-17.8-2.5-27.5-8.4-26-18-36.4-27.3-46.5-9.7-10.5-18.8-20.4-25.8-48-3.9-15.3-4.5-38.5-5.2-63-1-34.4-2-69.9-11.8-90.6-4.1-8.7-12.8-18.8-22-29.5-11.5-13.4-23.4-27.2-26.3-38.4-9.2-35.9-10.9-75.4-12.5-113.6-.7-15.4-1.3-30-2.4-44.3-2.2-28.9,3.7-60,9.4-90.1,8-42.4,16.3-86.3,2.6-125.6-3.3-9.5-17.3-22.9-32.1-37.1-20.4-19.6-43.5-41.7-39.1-54.1,1.9-5.3,4.9-8.6,9.1-10.1,13.7-4.9,37.7,9.4,57,20.9,10,6,18.8,11.2,24.9,13,.7,1.1,2.3,2.5,5.7,4.5,14.8,9.1,57.9,27.7,79.6,4.1,3.5-3.8,4.8-9.7,4-17.4-2.5-21.2-20.8-50.7-39.2-63.1-8.9-6-21.7-8.9-34.1-11.8-16.1-3.7-32.8-7.5-39.7-18.1-1.9-3-.8-6,1.2-10.7h-4.4c-1.8,4.2-3.1,8.5-.2,12.8,7.8,12,25.3,15.9,42.2,19.8,12,2.7,24.4,5.6,32.7,11.2,17.3,11.7,35.1,40.4,37.4,60.2,.7,6.5-.3,11.4-2.9,14.3-6.9,7.5-16.9,10.9-29.8,10.1-21.4-1.3-43.1-13.3-48.1-17.2,.2-1.1-.6-2.1-1.6-2.3-5.3-.9-15.2-6.8-25.7-13-20-11.9-45-26.8-60.4-21.3-5.4,1.9-9.3,6.2-11.6,12.6-5.3,14.8,17.8,37,40.1,58.4,14.5,13.9,28.1,27,31.1,35.5,13.4,38.3,5.2,81.6-2.7,123.5-5.7,30.4-11.7,61.8-9.4,91.2,1.1,14.2,1.7,28.8,2.4,44.2,1.6,38.4,3.3,78.1,12.6,114.4,3.1,12.1,15.3,26.3,27.1,40.1,9,10.5,17.5,20.4,21.4,28.6,9.4,19.9,10.4,55,11.4,89,.7,24.8,1.4,48.2,5.4,63.9,7.3,28.5,16.7,38.8,26.8,49.7,9,9.8,18.3,19.9,26.4,45,2.9,9,2.6,18.5,2.3,26.1-.3,7.7-.5,13.9,2.6,17.2,8.9,9.6,17.4,6.7,24.2,4.4,4.1-1.4,7.6-2.6,10.7-1.3,2,.8,4.9,5.3,8,10,3.9,6.1,8.8,13.7,15.5,19.8,4.3,4,10.8,5.9,17,7.7,8.7,2.6,16.9,5,19.4,12.4,5.5,16.6-1,35-7.8,54.6-6.2,17.8-12.6,36.1-11,55,1.4,16.7,3.7,32.9,5.9,48.5h4c-2.2-15.8-4.5-32.1-5.9-48.9-1.5-17.8,4.8-35.8,10.8-53.1Z"/><path class="b" d="M2907.6,1005.4c-6-13.2-12.2-26.8-17.5-40.6-12-31.3-26.6-63.6-40.7-94.8-33.3-73.7-67.7-150-75.7-228.2-9.4-92,14.4-202.6,65.1-303.2,57.9-114.9,85.2-222.7,85.6-338.3h-4c-.4,114.9-27.6,222.1-85.2,336.5-51,101.3-74.9,212.7-65.5,305.4,8,78.9,42.6,155.4,76,229.5,14.1,31.2,28.6,63.4,40.6,94.6,5.3,13.8,11.5,27.5,17.5,40.8,11.4,25.2,23.3,51.2,28.9,78.8,2.6,12.8,4,26,4.7,39.4h4c-.7-13.6-2.1-27-4.8-40.2-5.5-28-17.5-54.3-29-79.7Z"/><path class="b" d="M3125,966.6c7.4-74.2,10.1-132.7,.8-195.3-2.2-14.8-4.9-29.9-7.4-44.5-9-51.1-18.4-104-9.9-156.2,4.2-26.2,3.7-51.9,3.1-76.7-.6-25.1-1.1-51.1,3.4-76.9,1-5.6,2-11.2,3-16.9,10.2-58.1,20.7-118.2,36.5-174.2,19.5-69,49.4-135.4,78.2-199.6,3.9-8.6,7.8-17.3,11.7-26.1h-4.4c-3.7,8.2-7.3,16.4-11,24.5-28.9,64.3-58.8,130.9-78.4,200.1-15.9,56.2-26.4,116.4-36.6,174.6-1,5.6-2,11.3-3,16.9-4.6,26.2-4,52.4-3.5,77.7,.5,24.6,1.1,50.1-3.1,76-8.5,52.9,.9,106.1,9.9,157.5,2.6,14.6,5.2,29.6,7.4,44.4,9.3,62.2,6.6,120.5-.8,194.3-5.5,55-4.8,107.4-.8,159.1h4c-3.9-51.5-4.5-103.9,.9-158.7Z"/><path class="b" d="M3293.7,952.5c11.6-57.5,15.2-100.6,11.9-144.2-1.6-21.7-7.1-42.9-12.3-63.4-6.3-24.5-12.8-49.8-12.8-76,0-12.8,1.9-25.7,3.6-38.2,2.2-15.3,4.5-31.1,3.4-47-.7-10.5-3.7-21-6.6-31.3-4.2-14.9-8.6-30.3-5.8-45.4,1.9-10.3,7.2-19.1,12.5-27.7,5.4-8.9,11-18,12.9-29.1,2-11.8-1.1-27.6-4.1-42.8-2.3-11.5-4.4-22.5-4.4-31.4-.2-83,11.2-139.3,37.1-182.5,18.4-30.7,41.8-52.8,60.6-70.6,13.6-12.8,24.3-23,29.8-32.9,8.1-14.5,9.6-28.5,11.3-44.7,1.4-13.1,2.9-27.8,8.6-45h-4.2c-5.4,17-7,31.5-8.3,44.6-1.7,15.8-3.1,29.4-10.8,43.2-5.2,9.3-16.3,19.8-29.1,31.9-19,18-42.6,40.3-61.3,71.4-26.3,43.8-37.9,100.8-37.7,184.6,0,9.4,2.2,20.4,4.5,32.2,2.9,14.9,5.9,30.3,4.1,41.4-1.7,10.3-6.9,18.7-12.4,27.6-5.4,8.8-11,18-13,29-2.9,16,1.6,31.9,5.9,47.2,2.8,10,5.8,20.4,6.4,30.5,1,15.4-1.2,31-3.4,46.1-1.8,12.6-3.7,25.7-3.7,38.8,0,26.7,6.6,52.3,12.9,77,5.2,20.3,10.6,41.4,12.2,62.7,3.2,43.2-.3,86-11.8,143.1-11,54.7-15.5,115.8-12.7,173.6h3.8c-2.8-62.5,3-123.9,12.9-172.7Z"/><path class="b" d="M3380.9,1012.9c1.4-16.5,4.6-33.4,7.8-49.7,3.3-17.2,6.8-34.9,8-52.2,2.5-36.7-4.6-71.9-11.6-106-2.1-10.2-4.2-20.8-6.1-31.3-14.6-82.2-27.2-178-10.6-264.7,6.9-36.1,4.5-73.9,2.2-110.4-3.3-51.4-6.6-104.6,15.4-155.2,12.3-28.2,29.3-50.9,55.3-73.4,9.2-8,21.3-14.2,33.1-20.1,20.3-10.4,39.5-20.1,45.5-38.5,4.6-14.4,2.6-22.8,.3-32.5-2.3-9.6-5-20.5-1.9-40.7,1.9-12.6,8.2-25.4,14.7-37.9h-4.5c-6.2,12.2-12.2,24.7-14.1,37.3-3.2,21-.5,32.3,1.9,42.3,2.3,9.5,4.1,17-.2,30.3-5.4,16.8-23.9,26.2-43.5,36.2-12,6.1-24.4,12.4-33.9,20.7-26,22.6-43.9,46.4-56.3,74.8-22.4,51.5-19,105.1-15.7,157,2.3,36.3,4.7,73.8-2.1,109.4-16.7,87.4-4.1,183.6,10.6,266.2,1.9,10.5,4,21.1,6.1,31.4,6.9,33.8,14,68.8,11.5,104.9-1.2,17-4.6,34.6-7.9,51.7-3.2,16.4-6.5,33.4-7.9,50.1-3.2,39.4-3.4,76.3-.4,112.7h4c-3-35.2-3-72.2,.3-112.4Z"/><path class="b" d="M3599,105.3c.4,1.8,.7,3.5,1,5.3V39.7c-2.4,12.4-3.7,25.7-4,40.1-.2,10,1.4,17.9,3,25.5Z"/><path class="b" d="M3473.4,997.5c.8-69.8-8.3-137-17.1-202-13.2-97.9-25.7-190.3-7.4-290.3,6.1-33.4,3.2-68.3,.3-102.1-4.4-51.8-8.9-105.3,19.1-155,17.6-31.3,46.1-56.4,82.3-72.7,6.3-2.8,12.3-4.9,18.2-6.9,13.2-4.5,25-8.4,31.1-19.2v-11.7c-.3,1.2-.6,2.4-.9,3.6-4.1,14.3-16.2,18.4-31.5,23.5-6,2-12.2,4.1-18.6,7-37,16.7-66.1,42.4-84.1,74.4-28.6,50.8-24,104.9-19.6,157.3,2.8,33.5,5.8,68.1-.3,101-18.4,100.6-5.9,193.3,7.4,291.5,8.8,64.9,17.8,131.9,17.1,201.4-.2,17.2,.2,70.6,10,127.9h4.2c-10.3-59.8-10.3-115.6-10.2-127.7Z"/><path class="b" d="M3554.9,269c-49,50.3-49.6,94.4-50.3,145.5-.3,23.5-.6,47.9-5.2,76-12.5,77.4-3.5,134.1,5.2,188.9,1.4,9.1,2.9,18.5,4.3,27.9,7.9,54.2,16.5,105,25.5,158.7,3.5,20.5,7,41.8,10.6,63.3,2.5,15.3,2.8,34.5,3,54.8,.6,47.1,1.3,100.4,30.8,126.1,6.1,5.3,13.2,9.3,21.3,11.8v-4.2c-7-2.4-13.2-5.9-18.6-10.6-28.1-24.5-28.8-76.9-29.4-123.1-.3-20.5-.5-39.8-3.1-55.4-3.5-21.5-7.1-42.8-10.6-63.3-9-53.7-17.6-104.5-25.5-158.6-1.4-9.4-2.9-18.8-4.3-28-8.6-54.5-17.6-110.9-5.2-187.6,4.6-28.4,4.9-54,5.2-76.6,.7-52.3,1.2-93.6,49.2-142.7,13.7-14,27.6-23.2,42.3-32.6v-4.7c-15.8,9.9-30.6,19.4-45.2,34.4Z"/><path class="b" d="M3558.6,594.4c3.6,9.6,11.3,20,19.4,31,9.3,12.6,18.8,25.6,22,37.3v-10.9c-4.6-9.4-11.8-19.2-18.8-28.7-7.9-10.8-15.4-21-18.9-30.1-34.1-89.9-18.9-183.3,37.7-252.8v-6.1c-22.6,26.9-39.3,58-49.3,92-15.9,54.5-13.2,112.7,7.9,168.3Z"/><path class="b" d="M3586.8,750v.1c.2,.6,.4,1.3,.6,1.9,2.3,8,4,15.9,5.2,23.8,.2,1.1,.3,2.2,.5,3.4,3.5,25.5,2.3,50.7,1.2,75.2-.1,2.8-.3,5.7-.4,8.5,0,.4,0,.8-.1,1.1-.2,5.2-.4,10.4-.6,15.6v1c-.5,20.7,.2,41.7,4.8,62.7,.6,2.9,1.3,5.7,2,8.5v-19.8c-2.7-17.1-3.1-34.2-2.7-51.1v-1c.1-5.1,.3-10.2,.5-15.3v-1c.1-3.1,.3-6.1,.4-9.1,1.3-28.5,2.7-57.7-3.2-87.7-.2-.9-.4-1.8-.6-2.7-1.1-5.1-2.4-10.2-3.9-15.4-.5-1.7-.9-3.5-1.2-5.2-.1-.9-.3-1.9-.3-2.8-1.1-12.7,3.5-25.3,8.1-37.6,.9-2.4,1.7-4.7,2.6-7,.1-.2,.1-.4,.2-.6v-14c-1.4,6.6-3.9,13.4-6.5,20.4-5.7,15.4-11.6,31.4-6.6,48.1Z"/><path class="b" d="M872.4,1075c-6.3,1.4-10.8,4.9-13.3,10.3-4.3,9,7.7,23.5,27,40h6.3c-.4-.3-.8-.7-1.2-1-28.7-24.2-30.1-33.7-28.4-37.3,2.1-4.3,5.5-7,10.6-8.1,18.2-4.1,55.6,11.9,109,46.4h7.2c-46.9-30.7-93.9-55.5-117.2-50.3Z"/><path class="b" d="M1653.7,1036.1c8.2-3.3,17.6-7,28.5-11.9,23.9-10.8,40.9-34.5,47.7-66.7,9.6-45.4-2.6-98.2-29.6-128.3-19.9-22.2-38.4-29.7-54.7-36.3-14-5.7-26.1-10.6-36.8-23.6-7.1-8.7-11-18.7-15.1-29.4-3.5-9-7.1-18.4-12.8-26.8-16-23.4-35.7-32.6-56.5-42.3-9.9-4.6-20.2-9.4-30.9-16-51.4-31.8-96-93.9-119.5-166.1-2.9-9-2.9-18.5-2.9-27.7,0-8.3,0-16.9-2.2-25.1-7.2-26.7-37-78.9-68.3-83.7-18.1-2.7-34,5.4-50.8,13.9-17.3,8.8-35.1,17.9-56.1,14.8-28.8-4.3-58.2-25.4-86.7-45.8-16-11.5-31.1-22.3-45.7-30-8.1-4.3-16-7.8-23.7-11.3-30.6-13.8-54.8-24.8-52.7-63.7,1-18.9,6.7-37.1,12.2-54.8,8.6-27.9,17.6-56.7,9-89.3-8.8-33.4-23.8-60.9-47-85.8h-5.5c24.2,25.1,39.7,52.9,48.6,86.8,8.3,31.4-.5,59.7-8.9,87.1-5.5,17.9-11.3,36.4-12.3,55.7-2.3,41.7,24.3,53.7,55,67.6,7.6,3.4,15.5,7,23.5,11.2,14.4,7.6,29.4,18.4,45.3,29.7,28.9,20.7,58.7,42.1,88.5,46.5,22.2,3.3,40.6-6.1,58.5-15.2,16.2-8.3,31.6-16.1,48.4-13.5,29.2,4.4,58.3,55.7,65.1,80.8,2.1,7.6,2,15.6,2,24,0,9.5,0,19.3,3.1,28.9,23.7,73.1,69,136,121.2,168.2,10.8,6.7,21.2,11.6,31.3,16.2,21.2,9.9,39.5,18.5,54.9,40.9,5.5,8,9,17.1,12.4,26,4,10.5,8.2,21.3,15.7,30.5,11.3,13.8,24.4,19.1,38.4,24.8,15.9,6.5,33.9,13.8,53.2,35.3,26.2,29.3,38,80.6,28.7,124.8-6.5,30.9-22.6,53.6-45.4,63.8-10.9,4.9-20.2,8.6-28.4,11.9-33.6,13.4-49,19.5-76.9,71.1-3.8,7.1-7.4,14.4-10.8,21.8h4.4c3.1-6.8,6.4-13.4,9.9-19.9,27-50.2,41-55.7,74.7-69.1Z"/><path class="b" d="M2172.4,715.7c-10,26.6-1,81.4,12.2,95.8,4.1,4.4,7.9,6.7,11.3,6.7,1.4,0,2.8-.4,4-1.1,13.1-7.5,12.1-53.6,4.5-78.6-1.9-6.3-1.2-13.1-.6-19.1,.7-7,1.4-13-2.3-16.6-2.5-2.5-6.4-3.3-12.4-2.7-7.3,.7-13.1,6.2-16.7,15.6Zm17.3-11.7c1.1-.1,2.1-.2,3.1-.2,2.9,0,4.9,.6,6.1,1.7,2.3,2.3,1.7,7.4,1.1,13.4-.7,6.4-1.4,13.7,.7,20.7,8.3,27.1,6.8,68.6-2.6,74-2.6,1.5-6.1-.1-10.5-4.8-12.4-13.5-20.7-66.9-11.4-91.7,3-8,7.5-12.5,13.5-13.1Z"/></g></svg>